<svg width="35" height="18" viewBox="0 0 35 18" fill="none" xmlns="http://www.w3.org/2000/svg">
<path d="M8.37891 3.21094L3.28125 18H0.199219L6.62109 0.9375H8.58984L8.37891 3.21094ZM12.6445 18L7.53516 3.21094L7.3125 0.9375H9.29297L15.7383 18H12.6445ZM12.3984 11.6719V14.0039H3.11719V11.6719H12.3984ZM21.5 8.14062L18.1016 18H16.0469L20.3281 6.625H21.6406L21.5 8.14062ZM24.3438 18L20.9375 8.14062L20.7891 6.625H22.1094L26.4062 18H24.3438ZM24.1797 13.7812V15.3359H17.9922V13.7812H24.1797ZM30.7129 10.6055L28.1641 18H26.623L29.834 9.46875H30.8184L30.7129 10.6055ZM32.8457 18L30.291 10.6055L30.1797 9.46875H31.1699L34.3926 18H32.8457ZM32.7227 14.8359V16.002H28.082V14.8359H32.7227Z" fill="black"/>
</svg>
