<svg width="155" height="129" viewBox="0 0 155 129" fill="none" xmlns="http://www.w3.org/2000/svg">
<rect y="8" width="155" height="113" fill="#83C5BE" fill-opacity="0.3"/>
<path d="M92.4773 83.4659C86.3446 80.1232 88.0152 63.9802 88.0152 63.9802L78.8306 64.5722V63.9802L77.847 64.2762L76.8635 63.9802V64.5722L67.6789 63.9802C67.6789 63.9802 69.3495 80.1232 63.2168 83.4659C57.0841 86.8086 20.8376 88.4763 24.7356 125.773H130.951C134.857 88.4763 98.61 86.8014 92.4701 83.4659H92.4773Z" fill="#FFAC9D"/>
<path d="M66.3916 79.3002C73.732 78.21 81.0652 77.0838 88.3912 75.9214C87.357 70.3551 88.0224 63.9802 88.0224 63.9802L78.8378 64.5722V63.9802L77.8542 64.2762L76.8707 63.9802V64.5722L67.6861 63.9802C67.6861 63.9802 68.6552 73.3585 66.3988 79.3002H66.3916Z" fill="#CC887F"/>
<path d="M96.3898 84.1518C92.094 88.5558 85.3828 91.3931 77.8326 91.3931C70.2825 91.3931 63.5712 88.5558 59.2754 84.1518C48.0659 87.2634 20.5122 92.7576 23.9691 125.773H131.696C135.153 92.7576 107.592 87.2634 96.3898 84.1518Z" fill="#005F70"/>
<mask id="mask0_57_596" style="mask-type:luminance" maskUnits="userSpaceOnUse" x="23" y="84" width="109" height="42">
<path d="M96.3898 84.1518C92.094 88.5558 85.3828 91.3931 77.8326 91.3931C70.2825 91.3931 63.5712 88.5558 59.2754 84.1518C48.0659 87.2634 20.5122 92.7576 23.9691 125.773H131.696C135.153 92.7576 107.592 87.2634 96.3898 84.1518Z" fill="white"/>
</mask>
<g mask="url(#mask0_57_596)">
<path d="M110.232 86.9891C111.064 88.2381 111.895 89.4799 112.727 90.7289L113.081 91.2559L113.457 91.0466C111.873 91.3787 110.297 91.7108 108.713 92.0429L108.041 92.1873L108.294 92.2595C109.046 90.6784 109.791 89.0973 110.543 87.5234L110.861 86.852C110.912 86.7437 110.644 86.7798 110.608 86.7798C110.499 86.7942 110.29 86.8447 110.239 86.9603C109.487 88.5414 108.742 90.1224 107.99 91.6963L107.672 92.3677C107.621 92.476 107.903 92.4399 107.925 92.4399C109.509 92.1078 111.085 91.7757 112.669 91.4436L113.342 91.2992C113.342 91.2992 113.783 91.1909 113.718 91.0899C112.886 89.8409 112.054 88.5991 111.223 87.3501L110.868 86.8231C110.76 86.6643 110.181 86.9097 110.239 86.9891H110.232Z" fill="white"/>
<path d="M99.6731 87.0325C100.505 88.2815 101.336 89.5232 102.168 90.7722L102.523 91.2992L102.768 91.0105C101.185 91.3426 99.6081 91.6747 98.0243 92.0068L97.3517 92.1512L97.6916 92.3244C98.4437 90.7433 99.1886 89.1622 99.9407 87.5884L100.259 86.9169C100.389 86.6354 99.7599 86.7004 99.6659 86.8953C98.9138 88.4764 98.1689 90.0575 97.4168 91.6313L97.0986 92.3028C96.9973 92.5194 97.3155 92.5049 97.4385 92.476C99.0223 92.1439 100.599 91.8118 102.183 91.4797L102.855 91.3353C102.964 91.3137 103.202 91.191 103.101 91.0466C102.269 89.7976 101.438 88.5558 100.606 87.3068L100.252 86.7798C100.129 86.5993 99.514 86.8087 99.6659 87.0325H99.6731Z" fill="white"/>
<path d="M89.0928 87.0325C89.9244 88.2815 90.7561 89.5232 91.5878 90.7722C91.7035 90.9455 91.8264 91.126 91.9422 91.2993L92.1953 91.0177C90.6115 91.3498 89.0349 91.6819 87.4511 92.014C87.2269 92.0645 87.0027 92.1079 86.7785 92.1584L87.1184 92.3244C87.8706 90.7433 88.6154 89.1622 89.3676 87.5884C89.4761 87.3646 89.5773 87.1408 89.6858 86.9169C89.816 86.6426 89.1868 86.7148 89.1 86.9025C88.3479 88.4836 87.603 90.0647 86.8509 91.6386C86.7424 91.8624 86.6411 92.0862 86.5326 92.31C86.4314 92.5194 86.7496 92.5049 86.8725 92.476C88.4563 92.1439 90.0329 91.8118 91.6167 91.4797C91.8409 91.4292 92.0651 91.3859 92.2893 91.3354C92.3978 91.3137 92.6364 91.1982 92.5424 91.0538C91.7107 89.8048 90.8791 88.563 90.0474 87.314C89.9317 87.1408 89.8087 86.9603 89.693 86.787C89.5773 86.6137 88.9626 86.8159 89.1072 87.0325H89.0928Z" fill="white"/>
<path d="M78.5125 87.0397C79.3441 88.2886 80.1758 89.5304 81.0075 90.7794L81.3619 91.3064L81.6005 90.9743C80.0167 91.3064 78.4402 91.6385 76.8564 91.9706L76.1838 92.115L76.5381 92.3389C77.2903 90.7578 78.0352 89.1767 78.7873 87.6028C78.8958 87.379 78.997 87.1552 79.1055 86.9314C79.2501 86.6209 78.6137 86.6498 78.5052 86.8808C77.7531 88.4619 77.0082 90.043 76.2561 91.6169C76.1476 91.8407 76.0464 92.0645 75.9379 92.2883C75.8294 92.5121 76.1476 92.541 76.2923 92.5121C77.8761 92.18 79.4526 91.8479 81.0364 91.5158L81.709 91.3714C81.8392 91.3425 82.0489 91.1981 81.9476 91.0393C81.116 89.7903 80.2843 88.5486 79.4526 87.2996L79.0983 86.7725C78.9536 86.5559 78.3461 86.787 78.5197 87.0397H78.5125Z" fill="white"/>
<path d="M67.9032 86.9891C68.7349 88.2381 69.5666 89.4799 70.3982 90.7289L70.7526 91.2559L71.1214 91.0393C69.5376 91.3714 67.9611 91.7035 66.3773 92.0356L65.7047 92.18L65.9651 92.2594C66.7172 90.6784 67.4621 89.0973 68.2142 87.5234L68.5324 86.852C68.5902 86.7292 67.99 86.787 67.9104 86.953C67.1583 88.5341 66.4134 90.1152 65.6613 91.6891L65.3431 92.3605C65.2925 92.476 65.5745 92.4472 65.6035 92.4399C67.1873 92.1078 68.7638 91.7757 70.3476 91.4436L71.0202 91.2992C71.0202 91.2992 71.4613 91.1909 71.389 91.0827C70.5573 89.8337 69.7257 88.5919 68.894 87.3429L68.5396 86.8159C68.4311 86.6498 67.8454 86.8881 67.9104 86.9819L67.9032 86.9891Z" fill="white"/>
<path d="M57.3518 87.0469C58.1835 88.2959 59.0152 89.5376 59.8468 90.7866L60.2012 91.3137L60.4326 90.9599C58.8488 91.292 57.2723 91.6241 55.6885 91.9562L55.0159 92.1006L55.3775 92.3461C56.1296 90.765 56.8745 89.1839 57.6266 87.61C57.7351 87.3862 57.8363 87.1624 57.9448 86.9386C58.0967 86.6137 57.4603 86.6209 57.3446 86.8664C56.5924 88.4475 55.8476 90.0286 55.0954 91.6024C54.987 91.8263 54.8857 92.0501 54.7772 92.2739C54.6687 92.4977 54.987 92.5554 55.1388 92.5193C56.7226 92.1872 58.2992 91.8551 59.883 91.523L60.5556 91.3786C60.7002 91.3498 60.8955 91.1837 60.787 91.0249C59.9553 89.7759 59.1236 88.5341 58.292 87.2851L57.9376 86.7581C57.7785 86.5271 57.1782 86.7581 57.359 87.0324L57.3518 87.0469Z" fill="white"/>
<path d="M46.7641 87.0396C47.5958 88.2886 48.4275 89.5304 49.2592 90.7794L49.6135 91.3064L49.8594 90.996C48.2756 91.3281 46.699 91.6602 45.1152 91.9923C44.8911 92.0428 44.6669 92.0861 44.4427 92.1367L44.7898 92.3388C45.5419 90.7577 46.2868 89.1766 47.0389 87.6028L47.3572 86.9313C47.4946 86.6353 46.8654 86.6787 46.7641 86.8952C46.012 88.4763 45.2671 90.0574 44.515 91.6313L44.1968 92.3027C44.0955 92.5265 44.4065 92.5265 44.5439 92.5049C46.1277 92.1728 47.7043 91.8407 49.2881 91.5086C49.5123 91.458 49.7365 91.4147 49.9607 91.3642C50.0836 91.3353 50.3078 91.2054 50.2065 91.0537C49.3749 89.8047 48.5432 88.563 47.7115 87.314L47.3572 86.7869C47.227 86.5848 46.6123 86.8086 46.7714 87.0469L46.7641 87.0396Z" fill="white"/>
<path d="M36.1839 87.0396C37.0155 88.2886 37.8472 89.5304 38.6789 90.7794L39.0332 91.3064L39.2719 90.9815C37.6881 91.3136 36.1115 91.6457 34.5277 91.9778L33.8552 92.1222L34.2095 92.3388C34.9617 90.7577 35.7065 89.1766 36.4587 87.6028L36.7769 86.9313C36.9215 86.6281 36.2851 86.657 36.1766 86.8808C35.4245 88.4619 34.6796 90.043 33.9275 91.6169L33.6093 92.2883C33.5008 92.5121 33.819 92.5338 33.9636 92.5049C35.5474 92.1728 37.124 91.8407 38.7078 91.5086L39.3804 91.3642C39.5106 91.3353 39.7203 91.1909 39.619 91.0393C38.7874 89.7903 37.9557 88.5485 37.124 87.2995L36.7696 86.7725C36.625 86.5631 36.0175 86.7869 36.1911 87.0396H36.1839Z" fill="white"/>
<path d="M25.5962 87.0252C26.4279 88.2742 27.2596 89.516 28.0913 90.765L28.4456 91.292L28.6987 91.0249C27.1149 91.357 25.5384 91.6891 23.9546 92.0212L23.282 92.1656L23.6364 92.2739C24.3885 90.6928 25.1334 89.1117 25.8855 87.5378L26.2037 86.8664C26.2616 86.7364 25.994 86.7364 25.9361 86.7436C25.7987 86.7581 25.6396 86.823 25.5745 86.953C24.8224 88.5341 24.0775 90.1152 23.3254 91.6891L23.0072 92.3605C22.9276 92.5265 23.3254 92.476 23.3616 92.4688C24.9454 92.1367 26.5219 91.8046 28.1057 91.4725L28.7783 91.3281C28.8795 91.3064 29.1254 91.1981 29.0314 91.061C28.1997 89.812 27.3681 88.5702 26.5364 87.3212L26.182 86.7942C26.0735 86.6281 25.4588 86.8303 25.5962 87.0324V87.0252Z" fill="white"/>
<path d="M120.834 87.0325C121.665 88.2814 122.497 89.5232 123.329 90.7722C123.445 90.9455 123.567 91.126 123.683 91.2992L123.929 91.0032C122.345 91.3353 120.769 91.6674 119.185 91.9995L118.512 92.1439L118.852 92.3244C119.604 90.7433 120.349 89.1622 121.101 87.5884L121.42 86.9169C121.557 86.6354 120.921 86.6931 120.827 86.8953C120.074 88.4764 119.33 90.0575 118.577 91.6313L118.259 92.3028C118.158 92.5194 118.476 92.5121 118.599 92.4833C120.183 92.1512 121.759 91.8191 123.343 91.4869L124.016 91.3426C124.132 91.3209 124.363 91.1909 124.262 91.0466C123.43 89.7976 122.598 88.5558 121.767 87.3068C121.651 87.1335 121.528 86.953 121.412 86.7798C121.289 86.5921 120.675 86.8086 120.827 87.0325H120.834Z" fill="white"/>
<path d="M116.422 96.1002C117.254 97.3492 118.086 98.591 118.917 99.84L119.272 100.367L119.648 100.165C118.064 100.497 116.487 100.829 114.904 101.161L114.231 101.306L114.484 101.371C115.236 99.7894 115.981 98.2083 116.733 96.6345C116.842 96.4107 116.943 96.1869 117.051 95.963C117.102 95.862 116.509 95.9053 116.429 96.0713C115.677 97.6524 114.932 99.2335 114.18 100.807C114.072 101.031 113.971 101.255 113.862 101.479C113.812 101.587 114.094 101.551 114.115 101.544C115.699 101.212 117.276 100.88 118.859 100.548L119.532 100.403C119.532 100.403 119.966 100.295 119.908 100.201C119.076 98.952 118.245 97.7102 117.413 96.4612L117.059 95.9342C116.957 95.7753 116.372 96.0208 116.429 96.1002H116.422Z" fill="white"/>
<path d="M105.842 96.1003C106.674 97.3493 107.505 98.591 108.337 99.84L108.691 100.367L109.067 100.158C107.484 100.49 105.907 100.822 104.323 101.154L103.651 101.298L103.904 101.363C104.656 99.7823 105.401 98.2012 106.153 96.6273C106.261 96.4035 106.363 96.1797 106.471 95.9559C106.522 95.8476 106.254 95.8837 106.218 95.8909C106.11 95.9053 105.9 95.9559 105.849 96.0642C105.097 97.6453 104.352 99.2263 103.6 100.8C103.492 101.024 103.39 101.248 103.282 101.472C103.231 101.58 103.513 101.544 103.535 101.537C105.119 101.205 106.695 100.872 108.279 100.54L108.952 100.396C108.952 100.396 109.386 100.288 109.328 100.187C108.496 98.9376 107.664 97.6958 106.833 96.4468L106.478 95.9198C106.37 95.7609 105.791 96.0064 105.849 96.0858L105.842 96.1003Z" fill="white"/>
<path d="M95.2834 96.158C96.115 97.407 96.9467 98.6487 97.7784 99.8977L98.1327 100.425L98.3642 100.071C96.7804 100.403 95.2038 100.735 93.62 101.067L92.9474 101.212L93.309 101.464C94.0612 99.8833 94.806 98.3022 95.5582 96.7283C95.6666 96.5045 95.7679 96.2807 95.8764 96.0569C96.0282 95.732 95.3918 95.732 95.2689 95.9847C94.5168 97.5658 93.7719 99.1469 93.0198 100.721C92.9113 100.945 92.81 101.168 92.7015 101.392C92.5931 101.616 92.9113 101.674 93.0631 101.645C94.6469 101.313 96.2235 100.981 97.8073 100.649L98.4799 100.504C98.6245 100.475 98.8198 100.309 98.7113 100.15C97.8796 98.9014 97.0479 97.6596 96.2163 96.4107L95.8619 95.8836C95.7028 95.6454 95.1026 95.8836 95.2834 96.158Z" fill="white"/>
<path d="M84.7029 96.1652C85.5346 97.4142 86.3662 98.656 87.1979 99.905L87.5523 100.432L87.7765 100.057C86.1927 100.389 84.6161 100.721 83.0323 101.053L82.3597 101.197L82.7286 101.472C83.4807 99.8905 84.2256 98.3094 84.9777 96.7356C85.0862 96.5118 85.1874 96.2879 85.2959 96.0641C85.455 95.732 84.8186 95.7104 84.6884 95.9775C83.9363 97.5586 83.1914 99.1397 82.4393 100.714C82.3308 100.937 82.2296 101.161 82.1211 101.385C82.0126 101.623 82.3236 101.695 82.4899 101.659C84.0737 101.327 85.6503 100.995 87.2341 100.663L87.9067 100.519C88.0585 100.49 88.2393 100.309 88.1308 100.143C87.2992 98.8942 86.4675 97.6524 85.6358 96.4035L85.2815 95.8764C85.1151 95.6237 84.5149 95.8764 84.7029 96.1652Z" fill="white"/>
<path d="M74.1226 96.158C74.9543 97.407 75.786 98.6488 76.6176 99.8978L76.972 100.425L77.1962 100.057C75.6124 100.389 74.0358 100.721 72.452 101.053L71.7795 101.197L72.1411 101.464C72.8932 99.8833 73.6381 98.3022 74.3902 96.7283C74.4987 96.5045 74.5999 96.2807 74.7084 96.0569C74.8675 95.7248 74.2311 95.7104 74.1009 95.9703C73.3488 97.5514 72.6039 99.1325 71.8518 100.706C71.7433 100.93 71.6421 101.154 71.5336 101.378C71.4251 101.609 71.7361 101.681 71.8952 101.645C73.479 101.313 75.0555 100.981 76.6393 100.649L77.3119 100.504C77.4638 100.475 77.6446 100.295 77.5361 100.136C76.7044 98.887 75.8728 97.6452 75.0411 96.3963L74.6867 95.8692C74.5204 95.6165 73.9201 95.8692 74.1082 96.1508L74.1226 96.158Z" fill="white"/>
<path d="M63.535 96.1435C64.3667 97.3925 65.1984 98.6343 66.03 99.8833C66.1458 100.057 66.2687 100.237 66.3844 100.41L66.6375 100.129C65.0537 100.461 63.4772 100.793 61.8934 101.125L61.2208 101.269L61.5607 101.436C62.3128 99.8544 63.0577 98.2733 63.8098 96.6995L64.128 96.028C64.2582 95.7537 63.629 95.8259 63.5423 96.0136C62.7901 97.5947 62.0452 99.1758 61.2931 100.75L60.9749 101.421C60.8737 101.63 61.1919 101.609 61.3148 101.587C62.8986 101.255 64.4752 100.923 66.059 100.591L66.7315 100.446C66.84 100.425 67.0787 100.309 66.9847 100.165C66.153 98.9159 65.3213 97.6741 64.4896 96.4251C64.3739 96.2518 64.251 96.0714 64.1353 95.8981C64.0196 95.7248 63.4048 95.927 63.5495 96.1435H63.535Z" fill="white"/>
<path d="M52.9547 96.158C53.7863 97.407 54.618 98.6488 55.4497 99.8978L55.804 100.425L56.0282 100.057C54.4444 100.389 52.8679 100.721 51.2841 101.053L50.6115 101.197L50.9731 101.464C51.7252 99.8833 52.4701 98.3022 53.2222 96.7283C53.3307 96.5045 53.432 96.2807 53.5404 96.0569C53.6995 95.7248 53.0631 95.7032 52.933 95.9703C52.1808 97.5514 51.4359 99.1325 50.6838 100.706C50.5753 100.93 50.4741 101.154 50.3656 101.378C50.2571 101.609 50.5681 101.681 50.7272 101.645C52.311 101.313 53.8876 100.981 55.4714 100.649L56.1439 100.504C56.2958 100.475 56.4766 100.295 56.3681 100.136C55.5365 98.887 54.7048 97.6452 53.8731 96.3963L53.5187 95.8692C53.3524 95.6165 52.7522 95.8692 52.9402 96.1508L52.9547 96.158Z" fill="white"/>
<path d="M42.3743 96.158C43.206 97.407 44.0376 98.6487 44.8693 99.8977L45.2237 100.425L45.4551 100.064C43.8713 100.396 42.2947 100.728 40.7109 101.06L40.0384 101.204L40.4 101.464C41.1521 99.8833 41.897 98.3022 42.6491 96.7283L42.9673 96.0569C43.1264 95.7248 42.4828 95.7176 42.3598 95.9775C41.6077 97.5586 40.8628 99.1397 40.1107 100.714L39.7925 101.385C39.684 101.616 40.0022 101.681 40.1541 101.645C41.7379 101.313 43.3144 100.981 44.8982 100.649L45.5708 100.504C45.7227 100.475 45.9107 100.302 45.8022 100.143C44.9706 98.8942 44.1389 97.6524 43.3072 96.4035L42.9529 95.8764C42.7865 95.631 42.1863 95.8764 42.3743 96.158Z" fill="white"/>
<path d="M31.794 96.158C32.6256 97.407 33.4573 98.6487 34.289 99.8977C34.4047 100.071 34.5276 100.252 34.6434 100.425L34.8748 100.057C33.291 100.389 31.7144 100.721 30.1306 101.053L29.4581 101.197L29.8196 101.464C30.5718 99.8833 31.3167 98.3022 32.0688 96.7283L32.387 96.0569C32.5461 95.7248 31.9025 95.7104 31.7795 95.9775C31.0274 97.5586 30.2825 99.1397 29.5304 100.714L29.2122 101.385C29.1037 101.616 29.4219 101.681 29.5738 101.652C31.1576 101.32 32.7341 100.988 34.3179 100.656L34.9905 100.511C35.1424 100.483 35.3304 100.309 35.2219 100.143C34.3902 98.8942 33.5586 97.6524 32.7269 96.4035C32.6112 96.2302 32.4882 96.0497 32.3725 95.8764C32.2062 95.631 31.6059 95.8764 31.794 96.158Z" fill="white"/>
<path d="M127.003 96.1002C127.834 97.3492 128.666 98.591 129.498 99.84L129.852 100.367L130.228 100.165C128.644 100.497 127.068 100.829 125.484 101.161L124.811 101.306L125.065 101.363C125.817 99.7822 126.562 98.2011 127.314 96.6273C127.422 96.4035 127.523 96.1797 127.632 95.9559C127.675 95.862 127.082 95.9053 127.01 96.0641C126.258 97.6452 125.513 99.2263 124.761 100.8C124.652 101.024 124.551 101.248 124.443 101.472C124.392 101.573 124.674 101.537 124.696 101.529C126.28 101.197 127.856 100.865 129.44 100.533L130.112 100.389C130.112 100.389 130.546 100.28 130.489 100.187C129.657 98.9376 128.825 97.6958 127.993 96.4468L127.639 95.9198C127.538 95.7681 126.959 96.0136 127.01 96.0858L127.003 96.1002Z" fill="white"/>
<path d="M110.261 105.269C111.092 106.518 111.924 107.76 112.756 109.009C112.871 109.182 112.994 109.363 113.11 109.536L113.349 109.197C111.765 109.529 110.188 109.861 108.605 110.193L107.932 110.337L108.286 110.568C109.038 108.987 109.783 107.406 110.535 105.832L110.854 105.161C111.006 104.85 110.369 104.865 110.253 105.103C109.501 106.684 108.756 108.265 108.004 109.839L107.686 110.511C107.578 110.742 107.896 110.771 108.04 110.742C109.624 110.41 111.201 110.077 112.785 109.745L113.457 109.601C113.595 109.572 113.797 109.42 113.696 109.262C112.864 108.013 112.032 106.771 111.201 105.522C111.085 105.349 110.962 105.168 110.846 104.995C110.695 104.771 110.094 105.002 110.268 105.269H110.261Z" fill="white"/>
<path d="M99.6804 105.269C100.512 106.518 101.344 107.76 102.175 109.009L102.53 109.536L102.754 109.168C101.17 109.5 99.5936 109.832 98.0098 110.164L97.3372 110.308L97.6988 110.583C98.4509 109.002 99.1958 107.421 99.9479 105.847L100.266 105.175C100.425 104.843 99.7888 104.822 99.6587 105.089C98.9065 106.67 98.1617 108.251 97.4095 109.825L97.0913 110.496C96.9828 110.727 97.2938 110.799 97.4529 110.771C99.0367 110.438 100.613 110.106 102.197 109.774L102.87 109.63C103.022 109.601 103.202 109.42 103.094 109.262C102.262 108.013 101.431 106.771 100.599 105.522L100.244 104.995C100.078 104.742 99.4779 104.995 99.6659 105.276L99.6804 105.269Z" fill="white"/>
<path d="M89.0927 105.255C89.9244 106.504 90.7561 107.746 91.5877 108.994L91.9421 109.522L92.188 109.226C90.6042 109.558 89.0276 109.89 87.4438 110.222L86.7712 110.366L87.1112 110.547C87.8633 108.966 88.6082 107.385 89.3603 105.811C89.4688 105.587 89.57 105.363 89.6785 105.139C89.8159 104.858 89.1795 104.915 89.0855 105.118C88.3333 106.699 87.5885 108.28 86.8363 109.854C86.7279 110.077 86.6266 110.301 86.5181 110.525C86.4097 110.749 86.7351 110.734 86.858 110.706C88.4418 110.373 90.0184 110.041 91.6022 109.709L92.2748 109.565C92.3905 109.543 92.6219 109.413 92.5206 109.269C91.689 108.02 90.8573 106.778 90.0256 105.529L89.6713 105.002C89.5483 104.814 88.9336 105.031 89.0855 105.255H89.0927Z" fill="white"/>
<path d="M78.4835 105.211C79.3151 106.46 80.1468 107.702 80.9785 108.951L81.3328 109.478L81.7089 109.283C80.1251 109.615 78.5485 109.947 76.9647 110.28L76.2922 110.424L76.5453 110.475C77.2974 108.893 78.0423 107.312 78.7944 105.738C78.9029 105.515 79.0041 105.291 79.1126 105.067C79.1488 104.988 78.563 105.024 78.4907 105.183C77.7386 106.764 76.9937 108.345 76.2415 109.919C76.1331 110.142 76.0318 110.366 75.9233 110.59C75.8799 110.691 76.1548 110.648 76.1765 110.641C77.7603 110.308 79.3368 109.976 80.9206 109.644L81.5932 109.5C81.5932 109.5 82.0271 109.392 81.9693 109.305C81.1376 108.056 80.3059 106.814 79.4742 105.565L79.1199 105.038C79.0186 104.894 78.4473 105.146 78.4907 105.204L78.4835 105.211Z" fill="white"/>
<path d="M67.9031 105.211C68.7348 106.46 69.5664 107.702 70.3981 108.951L70.7525 109.478L71.1285 109.276C69.5448 109.608 67.9682 109.94 66.3844 110.272L65.7118 110.417L65.9649 110.475C66.7171 108.893 67.4619 107.312 68.2141 105.738L68.5323 105.067C68.5757 104.973 67.9826 105.017 67.9103 105.183C67.1582 106.764 66.4133 108.345 65.6612 109.919L65.343 110.59C65.2924 110.691 65.5744 110.655 65.5961 110.648C67.1799 110.316 68.7565 109.984 70.3403 109.651L71.0128 109.507C71.0128 109.507 71.4468 109.399 71.3889 109.305C70.5572 108.056 69.7255 106.814 68.8939 105.565L68.5395 105.038C68.4383 104.887 67.8597 105.132 67.9103 105.204L67.9031 105.211Z" fill="white"/>
<path d="M57.3228 105.211C58.1544 106.46 58.9861 107.702 59.8178 108.951L60.1722 109.478L60.541 109.262C58.9572 109.594 57.3806 109.926 55.7968 110.258L55.1243 110.402L55.3846 110.482C56.1367 108.901 56.8816 107.32 57.6337 105.746C57.7422 105.522 57.8435 105.298 57.952 105.074C58.0098 104.959 57.4096 105.009 57.33 105.175C56.5779 106.756 55.833 108.338 55.0809 109.911C54.9724 110.135 54.8711 110.359 54.7627 110.583C54.712 110.691 54.9941 110.662 55.023 110.662C56.6068 110.33 58.1834 109.998 59.7672 109.666L60.4397 109.522C60.4397 109.522 60.8809 109.413 60.8086 109.305C59.9769 108.056 59.1452 106.814 58.3135 105.565L57.9592 105.038C57.8507 104.872 57.2649 105.118 57.33 105.204L57.3228 105.211Z" fill="white"/>
<path d="M46.7641 105.255C47.5958 106.504 48.4274 107.745 49.2591 108.994L49.6135 109.521L49.8594 109.233C48.2756 109.565 46.699 109.897 45.1152 110.229L44.4426 110.373L44.7825 110.547C45.5347 108.966 46.2795 107.384 47.0317 105.811L47.3499 105.139C47.48 104.858 46.8509 104.923 46.7569 105.118C46.0047 106.699 45.2598 108.28 44.5077 109.854L44.1895 110.525C44.0883 110.742 44.4065 110.727 44.5294 110.698C46.1132 110.366 47.6898 110.034 49.2736 109.702L49.9461 109.558C50.0546 109.536 50.2933 109.413 50.192 109.269C49.3604 108.02 48.5287 106.778 47.697 105.529C47.5813 105.356 47.4584 105.175 47.3426 105.002C47.2269 104.829 46.605 105.031 46.7569 105.255H46.7641Z" fill="white"/>
<path d="M36.1838 105.262C37.0154 106.511 37.8471 107.753 38.6788 109.002C38.7945 109.175 38.9174 109.355 39.0331 109.529L39.2718 109.211C37.688 109.543 36.1114 109.875 34.5276 110.207L33.8551 110.352L34.2022 110.554C34.9543 108.973 35.6992 107.392 36.4513 105.818L36.7695 105.146C36.9142 104.85 36.2778 104.887 36.1765 105.103C35.4244 106.684 34.6795 108.265 33.9274 109.839L33.6092 110.511C33.5007 110.734 33.8189 110.742 33.9563 110.713C35.5401 110.381 37.1167 110.049 38.7005 109.716L39.373 109.572C39.496 109.543 39.7129 109.406 39.6117 109.254C38.78 108.005 37.9483 106.764 37.1167 105.515C37.001 105.341 36.878 105.161 36.7623 104.988C36.6249 104.785 36.0174 105.002 36.1765 105.248L36.1838 105.262Z" fill="white"/>
<path d="M25.6034 105.269C26.4351 106.518 27.2668 107.76 28.0985 109.009L28.4528 109.536L28.6843 109.189C27.1005 109.521 25.5239 109.853 23.9401 110.186L23.2675 110.33L23.6219 110.568C24.374 108.987 25.1189 107.406 25.871 105.832L26.1892 105.161C26.3411 104.843 25.7047 104.858 25.589 105.096C24.8369 106.677 24.092 108.258 23.3398 109.832L23.0216 110.503C22.9132 110.734 23.2314 110.77 23.376 110.742C24.9598 110.409 26.5364 110.077 28.1202 109.745L28.7927 109.601C28.9301 109.572 29.1326 109.413 29.0242 109.254C28.1925 108.005 27.3608 106.763 26.5291 105.515L26.1748 104.987C26.0229 104.756 25.4154 104.995 25.5962 105.262L25.6034 105.269Z" fill="white"/>
<path d="M120.812 105.211C121.644 106.46 122.475 107.702 123.307 108.951L123.661 109.478L124.03 109.254C122.446 109.586 120.87 109.919 119.286 110.251L118.614 110.395L118.874 110.482C119.626 108.901 120.371 107.32 121.123 105.746L121.441 105.074C121.499 104.944 120.899 105.002 120.812 105.175C120.06 106.756 119.315 108.337 118.563 109.911L118.245 110.583C118.187 110.698 118.469 110.677 118.505 110.669C120.089 110.337 121.665 110.005 123.249 109.673L123.922 109.529C123.922 109.529 124.363 109.413 124.291 109.305C123.459 108.056 122.627 106.814 121.796 105.565L121.441 105.038C121.326 104.865 120.74 105.103 120.812 105.204V105.211Z" fill="white"/>
<path d="M110.253 123.484C111.085 124.733 111.917 125.975 112.748 127.224L113.103 127.751L113.341 127.426C111.758 127.758 110.181 128.09 108.597 128.422L107.925 128.567L108.279 128.783C109.031 127.202 109.776 125.621 110.528 124.047L110.846 123.376C110.991 123.073 110.355 123.102 110.246 123.325C109.494 124.906 108.749 126.488 107.997 128.061L107.679 128.733C107.57 128.957 107.889 128.978 108.033 128.949C109.617 128.617 111.194 128.285 112.777 127.953L113.45 127.809C113.58 127.78 113.79 127.635 113.689 127.484C112.857 126.235 112.025 124.993 111.194 123.744L110.839 123.217C110.695 123.008 110.087 123.232 110.261 123.484H110.253Z" fill="white"/>
<path d="M99.6731 123.484C100.505 124.733 101.336 125.975 102.168 127.224L102.523 127.751L102.761 127.433C101.177 127.765 99.6008 128.098 98.017 128.43L97.3444 128.574L97.6916 128.776C98.4437 127.195 99.1886 125.614 99.9407 124.04L100.259 123.369C100.404 123.073 99.7671 123.116 99.6659 123.325C98.9138 124.906 98.1689 126.488 97.4168 128.061L97.0986 128.733C96.9901 128.957 97.3083 128.964 97.4457 128.935C99.0295 128.603 100.606 128.271 102.19 127.939L102.862 127.794C102.985 127.765 103.202 127.628 103.101 127.477C102.269 126.228 101.438 124.986 100.606 123.737L100.252 123.21C100.114 123.008 99.5068 123.232 99.6659 123.47L99.6731 123.484Z" fill="white"/>
<path d="M89.0927 123.477C89.9244 124.726 90.7561 125.968 91.5877 127.217C91.7035 127.39 91.8264 127.571 91.9421 127.744L92.1952 127.469C90.6114 127.802 89.0349 128.134 87.4511 128.466C87.2269 128.516 87.0027 128.56 86.7785 128.61L87.1329 128.726C87.885 127.145 88.6299 125.563 89.382 123.99C89.4905 123.766 89.5917 123.542 89.7002 123.318C89.7653 123.188 89.4905 123.181 89.4254 123.188C89.288 123.203 89.1289 123.268 89.0638 123.398C88.3117 124.979 87.5668 126.56 86.8147 128.134C86.7062 128.357 86.6049 128.581 86.4965 128.805C86.4169 128.971 86.8147 128.928 86.8508 128.921C88.4346 128.589 90.0112 128.256 91.595 127.924C91.8192 127.874 92.0434 127.83 92.2675 127.78C92.3688 127.758 92.6147 127.643 92.5207 127.506C91.689 126.257 90.8573 125.015 90.0256 123.766C89.9099 123.593 89.787 123.412 89.6713 123.239C89.5556 123.066 88.9409 123.275 89.0855 123.484L89.0927 123.477Z" fill="white"/>
<path d="M78.4834 123.441C79.3151 124.69 80.1468 125.932 80.9785 127.181L81.3328 127.708L81.7017 127.491C80.1179 127.823 78.5413 128.155 76.9575 128.487C76.7333 128.538 76.5091 128.581 76.2849 128.632L76.5453 128.711C77.2974 127.13 78.0423 125.549 78.7944 123.975C78.9029 123.751 79.0041 123.528 79.1126 123.304C79.1705 123.181 78.5702 123.232 78.4834 123.405C77.7313 124.986 76.9864 126.567 76.2343 128.141C76.1258 128.365 76.0246 128.588 75.9161 128.812C75.8655 128.928 76.1475 128.899 76.1765 128.892C77.7602 128.56 79.3368 128.228 80.9206 127.895C81.1448 127.845 81.369 127.802 81.5932 127.751C81.6221 127.751 82.0343 127.643 81.962 127.534C81.1303 126.285 80.2987 125.044 79.467 123.795L79.1126 123.268C78.9969 123.102 78.4111 123.34 78.4834 123.434V123.441Z" fill="white"/>
<path d="M67.932 123.499C68.7637 124.748 69.5954 125.989 70.427 127.238L70.7814 127.765L71.0056 127.397C69.4218 127.729 67.8452 128.061 66.2614 128.394L65.5889 128.538L65.9577 128.812C66.7098 127.231 67.4547 125.65 68.2068 124.076L68.525 123.405C68.6841 123.073 68.0477 123.051 67.9176 123.318C67.1654 124.899 66.4205 126.48 65.6684 128.054L65.3502 128.726C65.2417 128.964 65.5527 129.029 65.719 129C67.3028 128.668 68.8794 128.336 70.4632 128.004L71.1358 127.859C71.2876 127.83 71.4684 127.65 71.36 127.491C70.5283 126.242 69.6966 125 68.8649 123.751L68.5106 123.224C68.3442 122.972 67.744 123.224 67.932 123.506V123.499Z" fill="white"/>
<path d="M57.3228 123.441C58.1544 124.69 58.9861 125.932 59.8178 127.181L60.1722 127.708L60.541 127.491C58.9572 127.823 57.3806 128.155 55.7968 128.487C55.5726 128.538 55.3484 128.581 55.1243 128.632L55.3846 128.711C56.1367 127.13 56.8816 125.549 57.6337 123.975C57.7422 123.751 57.8435 123.528 57.952 123.304C58.0098 123.188 57.4096 123.239 57.33 123.405C56.5779 124.986 55.833 126.567 55.0809 128.141C54.9724 128.365 54.8711 128.588 54.7627 128.812C54.712 128.921 54.9941 128.899 55.023 128.892C56.6068 128.56 58.1834 128.228 59.7672 127.895C59.9914 127.845 60.2156 127.802 60.4397 127.751C60.4614 127.751 60.8809 127.643 60.8086 127.534C59.9769 126.285 59.1452 125.044 58.3135 123.795L57.9592 123.268C57.8507 123.102 57.2649 123.34 57.33 123.434L57.3228 123.441Z" fill="white"/>
<path d="M46.7641 123.491C47.5958 124.74 48.4274 125.982 49.2591 127.231L49.6135 127.758L49.8449 127.412C48.2611 127.744 46.6845 128.076 45.1007 128.408C44.8765 128.459 44.6524 128.502 44.4282 128.552L44.7825 128.791C45.5347 127.21 46.2795 125.628 47.0317 124.055L47.3499 123.383C47.5017 123.065 46.8653 123.073 46.7496 123.318C45.9975 124.899 45.2526 126.48 44.5005 128.054L44.1823 128.726C44.0738 128.957 44.392 129 44.5366 128.964C46.1204 128.632 47.697 128.3 49.2808 127.968C49.505 127.917 49.7292 127.874 49.9534 127.823C50.0908 127.794 50.2933 127.636 50.1848 127.477C49.3531 126.228 48.5214 124.986 47.6898 123.737L47.3354 123.21C47.1835 122.979 46.5761 123.217 46.7569 123.484L46.7641 123.491Z" fill="white"/>
<path d="M36.1837 123.484C37.0154 124.733 37.8471 125.975 38.6788 127.224L39.0331 127.751L39.2718 127.419C37.688 127.751 36.1114 128.083 34.5276 128.415L33.855 128.56L34.2094 128.783C34.9615 127.202 35.7064 125.621 36.4585 124.047L36.7768 123.376C36.9214 123.066 36.285 123.087 36.1765 123.318C35.4244 124.899 34.6795 126.48 33.9274 128.054L33.6092 128.726C33.5007 128.949 33.8189 128.986 33.9635 128.949C35.5473 128.617 37.1239 128.285 38.7077 127.953L39.3803 127.809C39.5177 127.78 39.7202 127.628 39.6189 127.477C38.7872 126.228 37.9556 124.986 37.1239 123.737L36.7695 123.21C36.6249 122.993 36.0174 123.224 36.191 123.477L36.1837 123.484Z" fill="white"/>
<path d="M25.6034 123.491C26.4351 124.74 27.2668 125.982 28.0984 127.231L28.4528 127.758L28.6842 127.404C27.1004 127.736 25.5239 128.069 23.9401 128.401L23.2675 128.545L23.6291 128.798C24.3812 127.217 25.1261 125.636 25.8782 124.062L26.1964 123.39C26.3483 123.065 25.7119 123.065 25.589 123.318C24.8368 124.899 24.0919 126.48 23.3398 128.054L23.0216 128.726C22.9131 128.957 23.2313 129.007 23.3832 128.978C24.967 128.646 26.5436 128.314 28.1274 127.982L28.7999 127.838C28.9446 127.809 29.1398 127.643 29.0314 127.484C28.1997 126.235 27.368 124.993 26.5363 123.744L26.182 123.217C26.0229 122.979 25.4226 123.217 25.6034 123.491Z" fill="white"/>
<path d="M120.834 123.47C121.665 124.719 122.497 125.961 123.329 127.21L123.683 127.737L123.944 127.484C122.36 127.816 120.783 128.148 119.199 128.48L118.527 128.625L118.874 128.711C119.626 127.13 120.371 125.549 121.123 123.975L121.441 123.304C121.499 123.181 121.224 123.188 121.174 123.195C121.051 123.21 120.87 123.268 120.812 123.39C120.06 124.971 119.315 126.553 118.563 128.126L118.245 128.798C118.172 128.949 118.563 128.892 118.592 128.885C120.176 128.552 121.752 128.22 123.336 127.888L124.009 127.744C124.095 127.722 124.356 127.621 124.269 127.491C123.437 126.242 122.606 125 121.774 123.751L121.42 123.224C121.318 123.073 120.704 123.275 120.827 123.455L120.834 123.47Z" fill="white"/>
<path d="M116.444 114.366C117.276 115.615 118.107 116.857 118.939 118.106L119.293 118.633L119.546 118.351C117.963 118.683 116.386 119.015 114.802 119.347L114.13 119.492L114.47 119.658C115.222 118.077 115.967 116.496 116.719 114.922C116.827 114.698 116.928 114.474 117.037 114.25C117.167 113.976 116.538 114.048 116.451 114.236C115.699 115.817 114.954 117.398 114.202 118.972C114.094 119.196 113.992 119.42 113.884 119.643C113.783 119.853 114.101 119.831 114.224 119.809C115.808 119.477 117.384 119.145 118.968 118.813L119.64 118.669C119.749 118.647 119.988 118.532 119.894 118.387C119.062 117.138 118.23 115.896 117.399 114.647L117.044 114.12C116.928 113.947 116.314 114.149 116.458 114.366H116.444Z" fill="white"/>
<path d="M105.864 114.359C106.695 115.608 107.527 116.849 108.359 118.098L108.713 118.625L108.966 118.358C107.382 118.69 105.806 119.023 104.222 119.355L103.549 119.499L103.904 119.6C104.656 118.019 105.401 116.438 106.153 114.864C106.261 114.64 106.363 114.416 106.471 114.193C106.529 114.063 106.261 114.063 106.203 114.07C106.066 114.084 105.907 114.149 105.842 114.279C105.09 115.86 104.345 117.441 103.593 119.015C103.484 119.239 103.383 119.463 103.275 119.687C103.195 119.853 103.593 119.795 103.629 119.788C105.213 119.456 106.789 119.124 108.373 118.792L109.046 118.647C109.147 118.625 109.393 118.517 109.299 118.38C108.467 117.131 107.635 115.889 106.804 114.64L106.449 114.113C106.341 113.947 105.726 114.149 105.864 114.351V114.359Z" fill="white"/>
<path d="M95.2832 114.388C96.1149 115.637 96.9466 116.878 97.7782 118.127L98.1326 118.654L98.3568 118.279C96.773 118.611 95.1964 118.943 93.6126 119.275L92.9401 119.42L93.3089 119.694C94.061 118.113 94.8059 116.532 95.558 114.958C95.6665 114.734 95.7678 114.51 95.8762 114.286C96.0353 113.954 95.3989 113.926 95.2688 114.2C94.5166 115.781 93.7717 117.362 93.0196 118.936C92.9111 119.16 92.8099 119.384 92.7014 119.607C92.5929 119.846 92.9039 119.918 93.0702 119.882C94.654 119.55 96.2306 119.217 97.8144 118.885L98.487 118.741C98.6388 118.705 98.8196 118.532 98.7112 118.366C97.8795 117.117 97.0478 115.875 96.2161 114.626L95.8618 114.099C95.6954 113.846 95.0952 114.099 95.2832 114.388Z" fill="white"/>
<path d="M84.6957 114.366C85.5274 115.615 86.3591 116.857 87.1908 118.106L87.5451 118.633L87.7983 118.358C86.2145 118.69 84.6379 119.023 83.0541 119.355L82.3815 119.499L82.7359 119.615C83.488 118.033 84.2329 116.452 84.985 114.878C85.0935 114.655 85.1948 114.431 85.3032 114.207C85.3683 114.077 85.0935 114.07 85.0284 114.077C84.891 114.092 84.7319 114.157 84.6668 114.286C83.9147 115.868 83.1698 117.449 82.4177 119.023C82.3092 119.246 82.208 119.47 82.0995 119.694C82.0199 119.86 82.4177 119.817 82.4538 119.809C84.0376 119.477 85.6142 119.145 87.198 118.813L87.8706 118.669C87.9718 118.647 88.2177 118.532 88.1237 118.394C87.292 117.145 86.4603 115.904 85.6287 114.655L85.2743 114.128C85.1586 113.954 84.5439 114.164 84.6885 114.373L84.6957 114.366Z" fill="white"/>
<path d="M74.1226 114.373C74.9543 115.622 75.7859 116.864 76.6176 118.113L76.972 118.64L77.2106 118.308C75.6268 118.64 74.0503 118.972 72.4665 119.304L71.7939 119.449L72.1483 119.672C72.9004 118.091 73.6453 116.51 74.3974 114.936C74.5059 114.712 74.6071 114.489 74.7156 114.265C74.8602 113.954 74.2238 113.983 74.1153 114.214C73.3632 115.795 72.6183 117.377 71.8662 118.95C71.7577 119.174 71.6565 119.398 71.548 119.622C71.4395 119.846 71.7577 119.874 71.9024 119.846C73.4862 119.514 75.0627 119.181 76.6465 118.849L77.3191 118.705C77.4493 118.676 77.659 118.532 77.5578 118.373C76.7261 117.124 75.8944 115.882 75.0627 114.633L74.7084 114.106C74.5637 113.889 73.9562 114.12 74.1298 114.373H74.1226Z" fill="white"/>
<path d="M63.5134 114.33C64.345 115.579 65.1767 116.821 66.0084 118.07C66.1241 118.243 66.247 118.423 66.3627 118.597L66.7316 118.38C65.1478 118.712 63.5712 119.044 61.9874 119.376L61.3148 119.521L61.5752 119.6C62.3273 118.019 63.0722 116.438 63.8243 114.864L64.1425 114.193C64.2004 114.07 63.6001 114.12 63.5134 114.294C62.7612 115.875 62.0163 117.456 61.2642 119.03L60.946 119.701C60.8954 119.817 61.1774 119.788 61.2064 119.781C62.7902 119.449 64.3667 119.116 65.9505 118.784L66.6231 118.64C66.6231 118.64 67.0642 118.532 66.9919 118.423C66.1602 117.174 65.3286 115.933 64.4969 114.684C64.3812 114.51 64.2582 114.33 64.1425 114.157C64.0268 113.983 63.441 114.229 63.5134 114.323V114.33Z" fill="white"/>
<path d="M52.9329 114.33C53.7646 115.579 54.5963 116.821 55.4279 118.07L55.7823 118.597L56.1511 118.387C54.5673 118.719 52.9908 119.051 51.407 119.384L50.7344 119.528L50.9875 119.6C51.7396 118.019 52.4845 116.438 53.2367 114.864C53.3451 114.64 53.4464 114.416 53.5549 114.193C53.6055 114.084 53.0125 114.128 52.9329 114.301C52.1808 115.882 51.4359 117.463 50.6838 119.037C50.5753 119.261 50.474 119.485 50.3656 119.708C50.3149 119.817 50.597 119.788 50.6187 119.781C52.2025 119.449 53.779 119.116 55.3628 118.784L56.0354 118.64C56.0354 118.64 56.4766 118.532 56.4042 118.431C55.5726 117.182 54.7409 115.94 53.9092 114.691L53.5549 114.164C53.4464 113.998 52.8606 114.243 52.9257 114.33H52.9329Z" fill="white"/>
<path d="M42.3671 114.359C43.1988 115.608 44.0304 116.849 44.8621 118.098L45.2165 118.625L45.4768 118.366C43.893 118.698 42.3165 119.03 40.7327 119.362L40.0601 119.506L40.4145 119.6C41.1666 118.019 41.9115 116.438 42.6636 114.864L42.9818 114.193C43.0397 114.07 42.7648 114.077 42.7142 114.084C42.584 114.099 42.4105 114.157 42.3526 114.286C41.6005 115.868 40.8556 117.449 40.1035 119.023L39.7853 119.694C39.713 119.853 40.1035 119.795 40.1396 119.788C41.7234 119.456 43.3 119.124 44.8838 118.792L45.5564 118.647C45.6504 118.625 45.9035 118.524 45.8167 118.387C44.9851 117.138 44.1534 115.896 43.3217 114.647L42.9673 114.12C42.8661 113.962 42.2514 114.164 42.3743 114.359H42.3671Z" fill="white"/>
<path d="M31.794 114.373C32.6256 115.622 33.4573 116.864 34.289 118.113C34.4047 118.286 34.5276 118.467 34.6434 118.64L34.882 118.308C33.2982 118.64 31.7216 118.972 30.1378 119.304L29.4653 119.449L29.8196 119.672C30.5718 118.091 31.3167 116.51 32.0688 114.936L32.387 114.265C32.5316 113.954 31.8952 113.976 31.7867 114.214C31.0346 115.795 30.2897 117.377 29.5376 118.95L29.2194 119.622C29.1109 119.846 29.4291 119.874 29.5738 119.846C31.1575 119.514 32.7341 119.181 34.3179 118.849L34.9905 118.705C35.1207 118.676 35.3304 118.532 35.2291 118.373C34.3975 117.124 33.5658 115.882 32.7341 114.633C32.6184 114.46 32.4955 114.279 32.3797 114.106C32.2351 113.889 31.6276 114.12 31.8012 114.373H31.794Z" fill="white"/>
<path d="M127.003 114.33C127.834 115.579 128.666 116.821 129.498 118.07L129.852 118.597L130.228 118.402C128.644 118.734 127.068 119.066 125.484 119.398L124.811 119.542L125.064 119.6C125.817 118.019 126.561 116.438 127.314 114.864C127.422 114.64 127.523 114.416 127.632 114.193C127.675 114.106 127.082 114.149 127.01 114.308C126.258 115.889 125.513 117.47 124.761 119.044C124.652 119.268 124.551 119.492 124.442 119.716C124.392 119.817 124.674 119.773 124.696 119.773C126.279 119.441 127.856 119.109 129.44 118.777L130.112 118.633C130.112 118.633 130.546 118.524 130.488 118.438C129.657 117.189 128.825 115.947 127.993 114.698L127.639 114.171C127.538 114.019 126.959 114.272 127.01 114.337L127.003 114.33Z" fill="white"/>
</g>
<path d="M69.0098 61.7854C69.0098 61.7854 59.7529 59.504 51.6603 62.8972C43.5678 66.2905 44.7032 43.3682 45.3323 42.5668C45.9615 41.7654 60.9027 32.7048 60.9027 32.7048L69.0098 61.7854Z" fill="#D3B9A3"/>
<path d="M85.0286 61.4678C85.0286 61.4678 94.4084 59.7351 102.277 63.6048C110.152 67.4745 110.391 44.5233 109.805 43.6859C109.219 42.8484 94.8568 32.9142 94.8568 32.9142L85.0286 61.4678Z" fill="#D3B9A3"/>
<path d="M59.883 40.3432C58.075 34.748 53.7937 36.0403 53.396 36.1775C52.9765 36.228 48.5506 36.885 49.3171 42.7112C50.0837 48.5808 53.4972 51.7574 56.6937 50.8261C59.9843 50.3062 61.7055 45.9745 59.883 40.3432Z" fill="#CC887F"/>
<path d="M95.9777 40.3432C97.7857 34.748 102.067 36.0403 102.465 36.1775C102.884 36.228 107.31 36.885 106.544 42.7112C105.777 48.5808 102.363 51.7574 99.167 50.8261C95.8764 50.3062 94.1552 45.9745 95.9777 40.3432Z" fill="#CC887F"/>
<path d="M55.5005 31.8674C57.7424 7.32791 76.4298 8.69964 78.1871 8.88735C79.9517 8.69964 98.6391 7.32791 100.874 31.8674C103.13 56.5512 92.1159 72.6726 78.1871 71.7918C64.2584 72.6798 53.2441 56.5584 55.5005 31.8674Z" fill="#FFAC9D"/>
<path d="M52.8752 37.6791L59.167 42.5091L74.3758 43.2671C74.3758 43.2671 78.838 38.3361 83.6544 43.0289L97.6338 43.2671L103.615 38.4228" stroke="#765E69" stroke-width="1.43" stroke-miterlimit="10"/>
<path d="M68.3877 50.0187C72.5042 49.1983 75.1751 45.2018 74.3533 41.0922C73.5315 36.9827 69.5281 34.3163 65.4116 35.1367C61.295 35.9572 58.6241 39.9537 59.4459 44.0632C60.2678 48.1728 64.2711 50.8391 68.3877 50.0187Z" fill="#A9C7DB" stroke="#765E69" stroke-width="1.34" stroke-miterlimit="10"/>
<path d="M97.5131 45.2405C98.9819 41.3147 96.9846 36.9436 93.0521 35.4774C89.1197 34.0112 84.7411 36.0051 83.2724 39.9308C81.8037 43.8566 83.8009 48.2276 87.7334 49.6939C91.6659 51.1601 96.0444 49.1662 97.5131 45.2405Z" fill="#A9C7DB" stroke="#765E69" stroke-width="1.34" stroke-miterlimit="10"/>
<path d="M81.4125 44.0107C81.7235 44.5739 81.9621 45.1587 82.1719 45.7434C82.3816 46.3282 82.5624 46.9275 82.7287 47.5195C82.8155 47.8155 82.8734 48.1187 82.9457 48.4219C83.018 48.7251 83.0759 49.0284 83.1337 49.3316C83.2566 49.938 83.3434 50.5517 83.4085 51.1654L83.4374 51.4542L83.2783 51.5986C82.7793 52.0534 82.2586 52.501 81.7379 52.9414C81.2028 53.3674 80.6748 53.8005 80.1035 54.1904C80.4723 53.6056 80.8846 53.0641 81.2968 52.5154C81.7162 51.974 82.1429 51.4469 82.5841 50.9344L82.4611 51.3675C82.2731 50.7755 82.1068 50.1763 81.9766 49.5771C81.9043 49.2738 81.832 48.9778 81.7813 48.6674C81.7307 48.3642 81.6584 48.0609 81.615 47.7577C81.521 47.1441 81.4487 46.5304 81.4053 45.9095C81.3691 45.2886 81.3474 44.6605 81.4053 44.018L81.4125 44.0107Z" fill="#CC887F"/>
<path d="M87.7188 58.6016C83.2712 62.9189 75.7355 62.6806 70.0222 58.8326L87.7188 58.6016Z" fill="white"/>
<path d="M95.8114 35.6938C95.8114 35.6938 95.6161 35.5855 95.2762 35.3977C95.1099 35.3039 94.9074 35.1956 94.6832 35.0729C94.459 34.9501 94.2059 34.8202 93.9238 34.6758C93.6346 34.5531 93.3525 34.387 93.0271 34.2643C92.868 34.1921 92.7089 34.1271 92.5498 34.0549C92.3834 33.9971 92.2171 33.9322 92.0435 33.8744C91.7109 33.73 91.3493 33.6723 91.0021 33.5495C90.6405 33.5134 90.2934 33.3763 89.9318 33.3907L89.3966 33.3474C89.2231 33.369 89.0423 33.3763 88.8687 33.3835C88.5143 33.369 88.1817 33.499 87.8418 33.5423C87.5019 33.6001 87.1909 33.7589 86.8727 33.8455L86.634 33.9177L86.4171 34.026C86.2724 34.0982 86.1278 34.1632 85.9904 34.2282C85.7156 34.3653 85.4408 34.4592 85.231 34.6036C85.0141 34.7408 84.8116 34.8418 84.6452 34.9357C84.3053 35.1162 84.0884 35.21 84.0884 35.21C84.0884 35.21 84.1752 35.0079 84.3632 34.6613C84.4572 34.4881 84.5729 34.2787 84.7248 34.0477C84.8622 33.8022 85.0719 33.5712 85.3178 33.3257C85.5709 33.0875 85.7951 32.7626 86.1495 32.5604C86.4966 32.3511 86.8365 32.0623 87.2632 31.9035C87.4729 31.8168 87.6971 31.7374 87.9213 31.6652C88.1455 31.5714 88.3769 31.528 88.6228 31.4992C88.8615 31.4631 89.1074 31.427 89.3605 31.4053C89.6064 31.4053 89.8522 31.427 90.1054 31.4414C90.6044 31.4486 91.0672 31.6147 91.5373 31.7302C91.7615 31.8096 91.9712 31.9035 92.1882 31.9973C92.4051 32.0839 92.6076 32.185 92.7884 32.3078C92.9764 32.4233 93.1645 32.5316 93.338 32.6471C93.5044 32.777 93.6635 32.8998 93.8154 33.0297C94.1336 33.268 94.3722 33.5567 94.6109 33.795C95.0592 34.3076 95.3702 34.7769 95.551 35.1306C95.7391 35.4772 95.8114 35.6938 95.8114 35.6938Z" fill="#352C38"/>
<path d="M72.5389 35.6938C72.5389 35.6938 72.3437 35.5855 72.0038 35.3977C71.8374 35.3039 71.6349 35.1956 71.4107 35.0729C71.1865 34.9501 70.9334 34.8202 70.6514 34.6758C70.3621 34.5531 70.0801 34.387 69.7546 34.2643C69.5955 34.1921 69.4364 34.1271 69.2773 34.0549C69.111 33.9971 68.9446 33.9322 68.7711 33.8744C68.4384 33.73 68.0768 33.6723 67.7297 33.5495C67.3681 33.5134 67.0209 33.3763 66.6593 33.3907L66.1242 33.3474C65.9506 33.369 65.7698 33.3763 65.5962 33.3835C65.2419 33.369 64.9092 33.499 64.5693 33.5423C64.2294 33.6001 63.9184 33.7589 63.6002 33.8455L63.3616 33.9177L63.1446 34.026C63 34.0982 62.8553 34.1632 62.7179 34.2282C62.4431 34.3653 62.1683 34.4592 61.9586 34.6036C61.7416 34.7408 61.5391 34.8418 61.3728 34.9357C61.0329 35.1162 60.8159 35.21 60.8159 35.21C60.8159 35.21 60.9027 35.0079 61.0907 34.6613C61.1847 34.4881 61.3005 34.2787 61.4523 34.0477C61.5897 33.8022 61.7995 33.5712 62.0454 33.3257C62.2985 33.0875 62.5227 32.7626 62.877 32.5604C63.2242 32.3511 63.5641 32.0623 63.9907 31.9035C64.2005 31.8168 64.4247 31.7374 64.6489 31.6652C64.873 31.5714 65.1045 31.528 65.3504 31.4992C65.589 31.4631 65.8349 31.427 66.088 31.4053C66.3339 31.4053 66.5798 31.427 66.8329 31.4414C67.3319 31.4486 67.7948 31.6147 68.2648 31.7302C68.489 31.8096 68.6987 31.9035 68.9157 31.9973C69.1327 32.0839 69.3352 32.185 69.516 32.3078C69.704 32.4233 69.892 32.5316 70.0656 32.6471C70.2319 32.777 70.391 32.8998 70.5429 33.0297C70.8611 33.268 71.0998 33.5567 71.3384 33.795C71.7868 34.3076 72.0978 34.7769 72.2786 35.1306C72.4666 35.4772 72.5389 35.6938 72.5389 35.6938Z" fill="#352C38"/>
<path d="M71.794 44.5811C71.794 44.5811 71.7434 44.3789 71.6276 44.0468C71.5119 43.7147 71.3384 43.2455 71.0636 42.7329C70.7815 42.2203 70.391 41.6716 69.8486 41.2673C69.581 41.0651 69.27 40.8991 68.9374 40.798C68.771 40.7402 68.6047 40.6897 68.4239 40.6753C68.2431 40.6536 68.0695 40.6175 67.8815 40.632C67.7079 40.632 67.491 40.6175 67.3536 40.6392C67.1655 40.6753 66.9269 40.6825 66.7822 40.7403C66.4857 40.8341 66.1531 40.9496 65.8999 41.159C65.6324 41.3467 65.4226 41.5994 65.2346 41.8521C65.0683 42.1192 64.9236 42.3935 64.8151 42.6607C64.6054 43.2021 64.4969 43.6931 64.4391 44.0324C64.374 44.3789 64.3595 44.5811 64.3595 44.5811C64.3595 44.5811 64.3017 44.3862 64.2655 44.0252C64.2294 43.6642 64.2077 43.1444 64.3378 42.5163C64.4029 42.2058 64.5042 41.8665 64.6777 41.5272C64.8585 41.1951 65.0827 40.8413 65.4226 40.5742C65.7408 40.2854 66.1386 40.0688 66.6014 39.9317C66.8329 39.8522 67.0064 39.8522 67.2089 39.8089C67.4693 39.7656 67.6645 39.7873 67.8887 39.7728C68.1057 39.7584 68.3299 39.8089 68.5541 39.845C68.7783 39.8667 68.988 39.9389 69.1977 40.0183C69.4147 40.076 69.6099 40.1916 69.7907 40.3071C69.986 40.4081 70.1451 40.5525 70.3114 40.6897C70.9478 41.2528 71.295 41.9531 71.4975 42.5452C71.7 43.1444 71.7578 43.6642 71.7795 44.0252C71.8012 44.3862 71.7795 44.5883 71.7795 44.5883L71.794 44.5811Z" fill="#352C38"/>
<path d="M92.7161 44.249C92.7161 44.249 92.6655 44.0468 92.5498 43.7147C92.4341 43.3826 92.2605 42.9134 91.9857 42.4008C91.7036 41.8882 91.3131 41.3395 90.7707 40.9352C90.5031 40.733 90.1922 40.567 89.8595 40.4659C89.6931 40.4082 89.5268 40.3576 89.346 40.3432C89.1652 40.3215 88.9916 40.2854 88.8036 40.2999C88.63 40.2999 88.4131 40.2854 88.2757 40.3071C88.0877 40.3432 87.849 40.3504 87.7044 40.4082C87.4079 40.502 87.0752 40.6175 86.8221 40.8269C86.5545 41.0146 86.3448 41.2673 86.1567 41.52C85.9904 41.7871 85.8457 42.0614 85.7373 42.3286C85.5275 42.87 85.4191 43.361 85.3612 43.7003C85.2961 44.0468 85.2817 44.249 85.2817 44.249C85.2817 44.249 85.2238 44.0541 85.1876 43.6931C85.1515 43.3321 85.1298 42.8123 85.26 42.1842C85.325 41.8737 85.4263 41.5344 85.5999 41.1951C85.7807 40.863 86.0048 40.5092 86.3448 40.2421C86.663 39.9533 87.0607 39.7367 87.5236 39.5996C87.755 39.5201 87.9285 39.5201 88.131 39.4768C88.3914 39.4335 88.5867 39.4552 88.8108 39.4407C89.0278 39.4263 89.252 39.4768 89.4762 39.5129C89.7004 39.5346 89.9101 39.6068 90.1198 39.6862C90.3368 39.744 90.5321 39.8595 90.7129 39.975C90.9081 40.0761 91.0672 40.2204 91.2336 40.3576C91.87 40.9208 92.2171 41.6211 92.4196 42.2131C92.6221 42.8123 92.6799 43.3321 92.7016 43.6931C92.7233 44.0541 92.7016 44.2562 92.7016 44.2562L92.7161 44.249Z" fill="#352C38"/>
<path d="M56.4117 5.9634C56.4117 5.9634 63.4049 -2.93838 77.3843 2.83731C85.3395 -2.21642 91.3637 0.187714 97.1492 4.51948L78.5848 13.905L56.4044 5.9634H56.4117Z" fill="#FDDEC0"/>
<path d="M30.9769 57.793C30.9769 57.793 30.8973 57.5547 30.7455 57.1071C30.5864 56.6595 30.3839 55.9953 30.1597 55.1362C30.0584 54.703 29.9572 54.2193 29.8487 53.6995C29.7547 53.1724 29.6751 52.5949 29.5884 51.9812C29.4871 50.7466 29.3859 49.3244 29.6318 47.7794C29.8704 46.256 30.2609 44.5739 31.1288 42.9928C31.3023 42.574 31.5772 42.2131 31.8158 41.816C32.0545 41.4189 32.3003 41.0218 32.6113 40.6681C32.9078 40.2999 33.1971 39.9172 33.5153 39.5562C33.8552 39.2169 34.2023 38.8776 34.5495 38.5383C34.8822 38.1773 35.2799 37.8885 35.6632 37.5781C36.0537 37.2748 36.4298 36.9427 36.842 36.6612C37.6882 36.1341 38.5054 35.5133 39.4238 35.0801C40.3061 34.618 41.1956 34.1488 42.0924 33.6867C42.8807 33.203 43.6762 32.6687 44.3705 32.0045C45.8024 30.7339 46.8583 29.1022 47.6538 27.3623C48.4204 25.608 48.9845 23.767 49.4401 21.9476C49.8957 20.1283 50.3007 18.345 50.7635 16.6556C51.2191 14.9663 51.7615 13.3852 52.4124 11.9846C53.0561 10.5767 53.8371 9.37827 54.6398 8.41806C55.4571 7.46507 56.2815 6.74311 56.9975 6.21608C57.7207 5.69627 58.3281 5.34251 58.7548 5.14036C59.1743 4.92377 59.4057 4.80826 59.4057 4.80826C59.4057 4.80826 59.196 4.94543 58.7982 5.20534C58.3932 5.4508 57.8436 5.87676 57.1783 6.43267C56.5202 7.00302 55.7825 7.7683 55.0665 8.74295C54.3723 9.73203 53.7286 10.9305 53.179 12.3094C52.6366 13.6884 52.1954 15.2406 51.8122 16.9155C51.4506 18.6122 51.0745 20.3954 50.6767 22.2436C50.2501 24.0991 49.7583 26.0411 48.9338 27.9255C48.1022 29.8026 46.9451 31.6363 45.354 33.0658C44.5802 33.795 43.6834 34.3942 42.7578 34.9429C41.8682 35.3978 40.9787 35.8526 40.0964 36.3074L39.4455 36.6395C39.2358 36.755 39.0405 36.8922 38.8308 37.0149C38.4258 37.2676 38.0136 37.5131 37.6158 37.7658C37.2181 38.0185 36.8637 38.3217 36.4804 38.596C36.1116 38.8776 35.7283 39.1447 35.4101 39.4696C35.0774 39.7801 34.7447 40.0905 34.4193 40.4009C34.1228 40.7403 33.8335 41.0724 33.5442 41.4045C33.2405 41.7221 33.0018 42.0831 32.7632 42.4369C32.5318 42.7978 32.257 43.1227 32.0834 43.5054C31.8881 43.8736 31.7001 44.2418 31.5048 44.6028C31.353 44.9782 31.2083 45.3536 31.0637 45.7218C30.8973 46.0828 30.8178 46.4654 30.7165 46.8336C30.6225 47.2018 30.4996 47.5628 30.4562 47.9238C30.3911 48.2848 30.3333 48.6457 30.2754 48.9923C30.2465 49.346 30.2175 49.6926 30.1886 50.0247C30.1018 50.6961 30.1525 51.3459 30.138 51.9523C30.1669 52.5588 30.2031 53.1291 30.2537 53.6489C30.326 54.176 30.3911 54.6525 30.449 55.0856C30.6081 55.9448 30.7238 56.6306 30.8395 57.0927C30.9407 57.5547 30.9986 57.8002 30.9986 57.8002L30.9769 57.793Z" fill="#FDDEC0"/>
<path d="M78.9826 17.0238C78.9826 17.0238 78.7512 16.9155 78.31 16.7711C77.8616 16.6267 77.2035 16.4174 76.3502 16.2585C75.504 16.1069 74.4482 15.9986 73.2983 16.1647C72.1556 16.3307 70.9479 16.865 70.0439 17.883C69.9282 18.0057 69.8197 18.1356 69.704 18.2656C69.61 18.4172 69.5232 18.5688 69.4292 18.7204C69.3352 18.872 69.2412 19.0237 69.1471 19.1825C69.0531 19.3413 69.0025 19.5218 68.9302 19.6951C68.8579 19.8683 68.7855 20.0416 68.7132 20.2221L68.612 20.4604L68.5252 20.7636C68.4095 21.1679 68.2793 21.5794 68.1781 21.9837C67.7875 23.5431 67.585 25.348 67.3392 27.2107C67.0933 29.0734 66.8112 31.1093 66.0374 33.073C65.2853 35.0368 64.0992 36.8922 62.6601 38.4372C62.2985 38.827 61.908 39.1736 61.5319 39.5418C61.1631 39.9172 60.7581 40.2421 60.3459 40.5598C59.9409 40.8774 59.5431 41.2167 59.1237 41.52C58.7042 41.8087 58.2775 42.0975 57.8581 42.3863C56.9613 43 56.296 43.4259 55.8114 44.0324C55.2979 44.6461 54.9725 45.3752 54.8134 46.1766C54.5169 47.7866 54.7989 49.541 55.1895 51.1654C55.5872 52.797 56.079 54.3492 56.4912 55.8076C56.9179 57.2587 57.2578 58.6232 57.4531 59.8578C57.6556 61.0923 57.6845 62.2041 57.5471 63.0994C57.4241 64.0018 57.1132 64.6516 56.889 65.0703C56.6286 65.4746 56.484 65.6768 56.484 65.6768C56.484 65.6768 56.5925 65.453 56.7877 65.027C56.9396 64.5866 57.1132 63.9224 57.1276 63.0705C57.1421 62.2186 56.9758 61.179 56.6648 60.0238C56.3466 58.8687 55.8765 57.5908 55.3486 56.1902C54.8134 54.7896 54.1915 53.2735 53.678 51.5769C53.179 49.8947 52.68 47.9887 52.991 45.8589C53.1501 44.8049 53.5767 43.7147 54.2782 42.8195C54.4518 42.5957 54.6254 42.3719 54.8568 42.1697C55.0665 41.9748 55.3124 41.7221 55.4932 41.5994L56.1369 41.1301L56.7226 40.7186C57.1132 40.4442 57.5109 40.1627 57.9087 39.8883C58.292 39.5995 58.6536 39.2819 59.0296 38.9787C59.4057 38.6754 59.7818 38.3722 60.1072 38.0257C60.4471 37.6863 60.8015 37.3687 61.1197 37.0149C62.4287 35.636 63.4628 34.0549 64.1499 32.3366C64.8369 30.6184 65.2202 28.7846 65.5167 26.9363C65.8204 25.0809 66.1314 23.2688 66.6883 21.5072C66.8257 21.0885 66.9776 20.6986 67.115 20.3015L67.2234 20.0055C67.2885 19.8539 67.3247 19.7889 67.3753 19.6806C67.4766 19.4785 67.5706 19.2836 67.6718 19.0886C67.7731 18.8937 67.8526 18.6988 67.9756 18.5183C68.1057 18.345 68.2287 18.1645 68.3589 17.9913C68.4818 17.818 68.612 17.6519 68.7349 17.4859C68.8868 17.3415 69.0387 17.1971 69.1905 17.0527C70.391 15.8831 71.9459 15.4211 73.2187 15.385C74.5133 15.3272 75.598 15.6016 76.4514 15.8687C77.3048 16.1358 77.9267 16.4679 78.3534 16.6773C78.7729 16.8939 78.9826 17.0383 78.9826 17.0383V17.0238Z" fill="#FDDEC0"/>
<path d="M58.1474 4.51947C46.0917 11.9773 54.77 28.8279 42.2371 35.802C29.7041 42.7834 30.9046 52.4071 33.5587 59.3885C34.4989 61.8648 37.1168 63.2221 40.0964 63.9369C39.1779 60.3198 38.4403 55.1723 39.7782 50.2413C39.7782 50.2413 38.8236 58.6449 41.6874 64.2545C43.2206 64.5072 44.7899 64.6299 46.2291 64.666C45.8603 63.2077 45.5999 61.3811 45.8024 59.3813C45.8024 59.3813 46.3231 61.9731 47.4151 64.6805C50.1127 64.6805 52.1231 64.435 52.1231 64.435C56.9469 58.6593 45.1298 45.4258 54.0541 40.8486C67.2235 34.0982 64.1788 27.3695 67.7948 19.9117C71.4108 12.4538 78.1148 17.5075 78.1148 17.5075C79.3225 3.30657 70.2103 -2.94561 58.1546 4.51225L58.1474 4.51947Z" fill="#FDDEC0"/>
<path d="M124.32 57.793C124.32 57.793 124.378 57.5475 124.479 57.0855C124.595 56.6234 124.703 55.9376 124.869 55.0784C124.927 54.6452 124.992 54.1615 125.065 53.6417C125.115 53.1147 125.151 52.5443 125.18 51.9451C125.159 51.3387 125.216 50.6961 125.13 50.0175C125.101 49.6782 125.072 49.3388 125.043 48.9851C124.985 48.6385 124.92 48.2776 124.862 47.9166C124.819 47.5484 124.696 47.1946 124.602 46.8264C124.493 46.4582 124.414 46.0756 124.255 45.7146C124.11 45.3464 123.965 44.9782 123.813 44.5956C123.625 44.2346 123.43 43.8736 123.235 43.4982C123.061 43.1155 122.787 42.7906 122.555 42.4297C122.316 42.0759 122.078 41.7149 121.774 41.3973C121.485 41.0652 121.196 40.7331 120.899 40.3937C120.574 40.0905 120.241 39.7801 119.908 39.4624C119.59 39.1375 119.207 38.8704 118.838 38.5888C118.462 38.3145 118.107 38.0113 117.702 37.7586C117.297 37.5131 116.892 37.2604 116.488 37.0077C116.285 36.885 116.083 36.7478 115.873 36.6323L115.222 36.3002C114.34 35.8454 113.45 35.3905 112.561 34.9357C111.635 34.387 110.738 33.7878 109.964 33.0586C108.373 31.6291 107.216 29.7953 106.384 27.9182C105.56 26.0339 105.068 24.0919 104.642 22.2364C104.251 20.3882 103.868 18.605 103.506 16.9083C103.123 15.2334 102.682 13.6812 102.139 12.3022C101.59 10.9233 100.946 9.72483 100.252 8.73574C99.543 7.7611 98.8054 6.99582 98.14 6.42547C97.4675 5.86956 96.9178 5.43638 96.5201 5.19813C96.1223 4.93823 95.9126 4.80106 95.9126 4.80106C95.9126 4.80106 96.1368 4.91657 96.5635 5.13316C96.9902 5.33531 97.5976 5.68907 98.3208 6.20888C99.0368 6.73591 99.8612 7.45787 100.678 8.41086C101.481 9.37107 102.262 10.5767 102.906 11.9773C103.557 13.378 104.099 14.959 104.555 16.6484C105.018 18.3378 105.43 20.1211 105.878 21.9404C106.334 23.7598 106.891 25.6008 107.665 27.3551C108.453 29.095 109.516 30.7339 110.948 31.9973C111.642 32.6615 112.43 33.1886 113.226 33.6795C114.123 34.1488 115.012 34.6108 115.894 35.0729C116.813 35.5061 117.63 36.1269 118.476 36.654C118.889 36.9355 119.265 37.2676 119.655 37.5709C120.038 37.8813 120.436 38.1701 120.769 38.5311C121.116 38.8776 121.463 39.2169 121.803 39.549C122.121 39.91 122.41 40.2927 122.707 40.6609C123.018 41.0146 123.264 41.4189 123.503 41.8088C123.734 42.2059 124.016 42.5668 124.19 42.9856C125.057 44.5667 125.448 46.2488 125.687 47.7722C125.925 49.31 125.831 50.7322 125.73 51.974C125.65 52.5877 125.564 53.1652 125.47 53.6923C125.354 54.2193 125.26 54.6958 125.159 55.129C124.934 55.9881 124.732 56.6523 124.573 57.0999C124.421 57.5475 124.341 57.7858 124.341 57.7858L124.32 57.793Z" fill="#FDDEC0"/>
<path d="M76.3213 17.0239C76.3213 17.0239 76.531 16.8867 76.9505 16.6629C77.3699 16.4535 77.9919 16.1214 78.8525 15.8543C79.7058 15.5872 80.7834 15.3128 82.0852 15.3706C83.3652 15.4067 84.9128 15.8759 86.1133 17.0383C86.2652 17.1827 86.4171 17.3271 86.569 17.4715C86.6919 17.6375 86.8221 17.8108 86.945 17.9768C87.068 18.1501 87.1981 18.3234 87.3283 18.5039C87.4513 18.6844 87.5308 18.8793 87.6321 19.0742C87.7261 19.2692 87.8273 19.4641 87.9286 19.6662C87.9792 19.7745 88.0154 19.8395 88.0804 19.9911L88.1889 20.2871C88.3263 20.6842 88.4782 21.0741 88.6156 21.4928C89.1725 23.2544 89.4907 25.0665 89.7872 26.9219C90.0837 28.7702 90.467 30.6039 91.154 32.3222C91.8411 34.0333 92.868 35.6216 94.1842 37.0005C94.5024 37.3471 94.864 37.6719 95.1967 38.0113C95.5294 38.3578 95.8982 38.661 96.2742 38.9643C96.6503 39.2675 97.0119 39.5851 97.3952 39.8739C97.793 40.1483 98.1835 40.4298 98.5812 40.7042L99.167 41.1157L99.8107 41.585C99.9915 41.7077 100.237 41.9604 100.447 42.1553C100.679 42.3575 100.845 42.5813 101.026 42.8051C101.727 43.7003 102.154 44.7905 102.313 45.8445C102.624 47.9743 102.125 49.8803 101.626 51.5625C101.112 53.2591 100.49 54.7752 99.9553 56.1758C99.4274 57.5764 98.9573 58.8543 98.6391 60.0094C98.3281 61.1646 98.1618 62.197 98.1762 63.0561C98.1907 63.9152 98.3643 64.5722 98.5161 65.0126C98.7114 65.4386 98.8199 65.6624 98.8199 65.6624C98.8199 65.6624 98.6753 65.4602 98.4149 65.0559C98.1979 64.6372 97.887 63.9874 97.7568 63.085C97.6194 62.1897 97.6483 61.0779 97.8508 59.8434C98.0461 58.6088 98.386 57.2443 98.8127 55.7932C99.2249 54.342 99.7167 52.7826 100.114 51.151C100.505 49.5265 100.787 47.765 100.49 46.1622C100.339 45.3608 100.013 44.6316 99.4925 44.018C99.0007 43.4188 98.3426 42.9856 97.4458 42.3719C97.0264 42.0831 96.6069 41.7943 96.1802 41.5056C95.768 41.2023 95.3703 40.863 94.958 40.5453C94.553 40.2277 94.1408 39.9028 93.772 39.5274C93.3959 39.1592 92.9982 38.8126 92.6438 38.4228C91.2046 36.8778 90.0186 35.0223 89.2665 33.0586C88.4927 31.0949 88.2106 29.0589 87.9647 27.1963C87.7188 25.3336 87.5163 23.5359 87.1258 21.9693C87.0173 21.565 86.8872 21.1463 86.7787 20.7492L86.6919 20.446L86.5907 20.2077C86.5183 20.0344 86.446 19.8539 86.3737 19.6807C86.3014 19.5074 86.2435 19.3197 86.1567 19.1681C86.0627 19.0165 85.9687 18.8576 85.8747 18.706C85.7807 18.5544 85.6939 18.4028 85.5999 18.2512C85.4842 18.1212 85.3685 17.9985 85.26 17.8686C84.3632 16.8506 83.1482 16.3163 82.0056 16.1503C80.8557 15.9842 79.7999 16.0925 78.9537 16.2441C78.1003 16.403 77.4422 16.6051 76.9939 16.7567C76.5455 16.9083 76.3213 17.0094 76.3213 17.0094V17.0239Z" fill="#FDDEC0"/>
<path d="M113.06 35.8093C100.527 28.8279 109.205 11.9846 97.1494 4.52671C85.0937 -2.93115 76.8999 3.32104 78.1076 17.522C78.1076 17.522 83.8932 12.4683 87.5092 19.9261C91.1251 27.384 88.0805 34.1127 101.25 40.863C110.167 45.433 98.3571 58.6738 103.181 64.4495C103.181 64.4495 107.007 64.9115 111.223 64.5578C112.011 62.5507 112.864 59.6557 113.306 55.7859C113.306 55.7859 114 59.9589 112.741 64.3917C113.841 64.2473 114.933 64.038 115.967 63.742C116.372 62.5796 116.726 61.3378 116.922 60.1177C116.922 60.1177 117.016 61.54 116.813 63.4748C119.091 62.6807 120.971 61.41 121.738 59.3958C124.392 52.4144 125.593 42.7906 113.06 35.8093Z" fill="#FDDEC0"/>
</svg>
