<svg width="249" height="152" viewBox="0 0 249 152" fill="none" xmlns="http://www.w3.org/2000/svg">
<rect x="29" y="9" width="220" height="117" fill="#FFDACE"/>
<path d="M80.52 67.82C81.0267 67.9 81.4867 68.1067 81.9 68.44C82.3267 68.7733 82.66 69.1867 82.9 69.68C83.1533 70.1733 83.28 70.7 83.28 71.26C83.28 71.9667 83.1 72.6067 82.74 73.18C82.38 73.74 81.8533 74.1867 81.16 74.52C80.48 74.84 79.6733 75 78.74 75H73.54V61.06H78.54C79.4867 61.06 80.2933 61.22 80.96 61.54C81.6267 61.8467 82.1267 62.2667 82.46 62.8C82.7933 63.3333 82.96 63.9333 82.96 64.6C82.96 65.4267 82.7333 66.1133 82.28 66.66C81.84 67.1933 81.2533 67.58 80.52 67.82ZM75.36 67.08H78.42C79.2733 67.08 79.9333 66.88 80.4 66.48C80.8667 66.08 81.1 65.5267 81.1 64.82C81.1 64.1133 80.8667 63.56 80.4 63.16C79.9333 62.76 79.26 62.56 78.38 62.56H75.36V67.08ZM78.58 73.5C79.4867 73.5 80.1933 73.2867 80.7 72.86C81.2067 72.4333 81.46 71.84 81.46 71.08C81.46 70.3067 81.1933 69.7 80.66 69.26C80.1267 68.8067 79.4133 68.58 78.52 68.58H75.36V73.5H78.58ZM87.6256 65.82C87.9456 65.1933 88.399 64.7067 88.9856 64.36C89.5856 64.0133 90.3123 63.84 91.1656 63.84V65.72H90.6856C88.6456 65.72 87.6256 66.8267 87.6256 69.04V75H85.8056V64.04H87.6256V65.82ZM92.5866 69.48C92.5866 68.36 92.8132 67.38 93.2666 66.54C93.7199 65.6867 94.3399 65.0267 95.1266 64.56C95.9266 64.0933 96.8132 63.86 97.7866 63.86C98.7466 63.86 99.5799 64.0667 100.287 64.48C100.993 64.8933 101.52 65.4133 101.867 66.04V64.04H103.707V75H101.867V72.96C101.507 73.6 100.967 74.1333 100.247 74.56C99.5399 74.9733 98.7132 75.18 97.7666 75.18C96.7932 75.18 95.9132 74.94 95.1266 74.46C94.3399 73.98 93.7199 73.3067 93.2666 72.44C92.8132 71.5733 92.5866 70.5867 92.5866 69.48ZM101.867 69.5C101.867 68.6733 101.7 67.9533 101.367 67.34C101.033 66.7267 100.58 66.26 100.007 65.94C99.4466 65.6067 98.8266 65.44 98.1466 65.44C97.4666 65.44 96.8466 65.6 96.2866 65.92C95.7266 66.24 95.2799 66.7067 94.9466 67.32C94.6132 67.9333 94.4466 68.6533 94.4466 69.48C94.4466 70.32 94.6132 71.0533 94.9466 71.68C95.2799 72.2933 95.7266 72.7667 96.2866 73.1C96.8466 73.42 97.4666 73.58 98.1466 73.58C98.8266 73.58 99.4466 73.42 100.007 73.1C100.58 72.7667 101.033 72.2933 101.367 71.68C101.7 71.0533 101.867 70.3267 101.867 69.5ZM112.902 75L108.602 70.16V75H106.782V60.2H108.602V68.9L112.822 64.04H115.362L110.202 69.5L115.382 75H112.902ZM137.007 64.04L133.587 75H131.707L129.067 66.3L126.427 75H124.547L121.107 64.04H122.967L125.487 73.24L128.207 64.04H130.067L132.727 73.26L135.207 64.04H137.007ZM148.253 64.04L141.653 80.16H139.773L141.933 74.88L137.513 64.04H139.533L142.973 72.92L146.373 64.04H148.253ZM155.423 63.84C156.756 63.84 157.836 64.2467 158.663 65.06C159.49 65.86 159.903 67.02 159.903 68.54V75H158.103V68.8C158.103 67.7067 157.83 66.8733 157.283 66.3C156.736 65.7133 155.99 65.42 155.043 65.42C154.083 65.42 153.316 65.72 152.743 66.32C152.183 66.92 151.903 67.7933 151.903 68.94V75H150.083V64.04H151.903V65.6C152.263 65.04 152.75 64.6067 153.363 64.3C153.99 63.9933 154.676 63.84 155.423 63.84ZM163.816 62.26C163.469 62.26 163.176 62.14 162.936 61.9C162.696 61.66 162.576 61.3667 162.576 61.02C162.576 60.6733 162.696 60.38 162.936 60.14C163.176 59.9 163.469 59.78 163.816 59.78C164.149 59.78 164.429 59.9 164.656 60.14C164.896 60.38 165.016 60.6733 165.016 61.02C165.016 61.3667 164.896 61.66 164.656 61.9C164.429 62.14 164.149 62.26 163.816 62.26ZM164.696 64.04V75H162.876V64.04H164.696ZM173.918 75L169.618 70.16V75H167.798V60.2H169.618V68.9L173.838 64.04H176.378L171.218 69.5L176.398 75H173.918ZM182.871 75.18C181.844 75.18 180.911 74.9467 180.071 74.48C179.244 74.0133 178.591 73.3533 178.111 72.5C177.644 71.6333 177.411 70.6333 177.411 69.5C177.411 68.38 177.651 67.3933 178.131 66.54C178.624 65.6733 179.291 65.0133 180.131 64.56C180.971 64.0933 181.911 63.86 182.951 63.86C183.991 63.86 184.931 64.0933 185.771 64.56C186.611 65.0133 187.271 65.6667 187.751 66.52C188.244 67.3733 188.491 68.3667 188.491 69.5C188.491 70.6333 188.237 71.6333 187.731 72.5C187.237 73.3533 186.564 74.0133 185.711 74.48C184.857 74.9467 183.911 75.18 182.871 75.18ZM182.871 73.58C183.524 73.58 184.137 73.4267 184.711 73.12C185.284 72.8133 185.744 72.3533 186.091 71.74C186.451 71.1267 186.631 70.38 186.631 69.5C186.631 68.62 186.457 67.8733 186.111 67.26C185.764 66.6467 185.311 66.1933 184.751 65.9C184.191 65.5933 183.584 65.44 182.931 65.44C182.264 65.44 181.651 65.5933 181.091 65.9C180.544 66.1933 180.104 66.6467 179.771 67.26C179.437 67.8733 179.271 68.62 179.271 69.5C179.271 70.3933 179.431 71.1467 179.751 71.76C180.084 72.3733 180.524 72.8333 181.071 73.14C181.617 73.4333 182.217 73.58 182.871 73.58ZM184.911 60.8L180.651 63.08V61.72L184.911 59.22V60.8ZM205.484 64.04L202.064 75H200.184L197.544 66.3L194.904 75H193.024L189.584 64.04H191.444L193.964 73.24L196.684 64.04H198.544L201.204 73.26L203.684 64.04H205.484Z" fill="#020202"/>
<g clip-path="url(#clip0_68_1479)">
<path d="M0 132.218H63.2408" stroke="#B9491D" stroke-miterlimit="10"/>
<path d="M0 126.414H63.2408" stroke="#B9491D" stroke-miterlimit="10"/>
<path d="M0 120.619H63.2408" stroke="#B9491D" stroke-miterlimit="10"/>
<path d="M0 114.815H63.2408" stroke="#B9491D" stroke-miterlimit="10"/>
<path d="M0 109.02H63.2408" stroke="#B9491D" stroke-miterlimit="10"/>
<path d="M0 103.225H63.2408" stroke="#B9491D" stroke-miterlimit="10"/>
<path d="M0 97.421H63.2408" stroke="#B9491D" stroke-miterlimit="10"/>
<path d="M0 91.6258H63.2408" stroke="#B9491D" stroke-miterlimit="10"/>
<path d="M0 85.822H63.2408" stroke="#B9491D" stroke-miterlimit="10"/>
<path d="M0 80.0269H63.2408" stroke="#B9491D" stroke-miterlimit="10"/>
<path d="M0 74.2231H63.2408" stroke="#B9491D" stroke-miterlimit="10"/>
<path d="M0 68.428H63.2408" stroke="#B9491D" stroke-miterlimit="10"/>
<path d="M19.3914 85.8306L19.3914 151.581H84.5756V85.8306H19.3914Z" stroke="black" stroke-miterlimit="10"/>
</g>
<g clip-path="url(#clip1_68_1479)">
<path d="M20.77 1.77002L38.49 19.49" stroke="black" stroke-width="5" stroke-miterlimit="10"/>
<path d="M38.49 1.77002L20.77 19.49" stroke="black" stroke-width="5" stroke-miterlimit="10"/>
</g>
<defs>
<clipPath id="clip0_68_1479">
<rect width="85" height="84" fill="white" transform="translate(0 68)"/>
</clipPath>
<clipPath id="clip1_68_1479">
<rect width="21.25" height="21.25" fill="white" transform="translate(19)"/>
</clipPath>
</defs>
</svg>
