<svg width="72" height="50" viewBox="0 0 72 50" fill="none" xmlns="http://www.w3.org/2000/svg">
<mask id="mask0_2_351" style="mask-type:luminance" maskUnits="userSpaceOnUse" x="17" y="4" width="48" height="19">
<path d="M64.6838 4.85805H17.4853V22.0657H64.6838V4.85805Z" fill="white"/>
</mask>
<g mask="url(#mask0_2_351)">
<path d="M25.0303 4.89382H33.2445C34.4439 4.89382 35.6287 5.16432 36.7086 5.68607L37.5625 6.09687C38.0496 6.33253 38.5827 6.45632 39.1241 6.45632H43.7776C45.6241 6.45632 47.3612 7.15504 48.6903 8.42503C48.6967 8.43053 48.7041 8.43328 48.7086 8.4397L48.7647 8.49564C48.7776 8.50847 48.7904 8.51948 48.8024 8.5314L50.3079 10.0334L57.8722 12.0076C60.7408 12.7549 63.205 14.6714 64.6333 17.2636C64.6636 17.3168 64.6811 17.3773 64.6838 17.4415V17.4543C64.6829 19.2406 63.2252 20.6949 61.4347 20.6949H61.3916C60.9789 20.6949 60.614 20.9324 60.4127 21.2918C60.1802 21.7081 59.7353 21.9878 59.2243 21.9878C58.7132 21.9878 58.2675 21.7081 58.034 21.2918C57.8327 20.9324 57.4706 20.6949 57.0561 20.6949H54.6002C54.2041 20.6949 53.8484 20.9204 53.6627 21.2689C53.4329 21.6971 52.9807 21.9878 52.4614 21.9878C51.9412 21.9878 51.4881 21.6971 51.2592 21.2689C51.0717 20.9204 50.716 20.6949 50.3199 20.6949H32.5184C32.1222 20.6949 31.7656 20.9204 31.58 21.2689C31.3502 21.6971 30.8989 21.9878 30.3787 21.9878C29.8594 21.9878 29.4063 21.6971 29.1774 21.2689C28.9899 20.9204 28.6333 20.6949 28.2371 20.6949H26.1967C25.8006 20.6949 25.4439 20.9204 25.2564 21.2689C25.0285 21.6971 24.5763 21.9878 24.0552 21.9878C23.5349 21.9878 23.0836 21.6971 22.8539 21.2689C22.6682 20.9204 22.3107 20.6949 21.9154 20.6949H19.227C18.0634 20.6949 17.7031 19.7541 17.7031 18.5941V6.99457C17.7031 5.8337 18.0634 4.89382 19.227 4.89382H20.0423" fill="black"/>
</g>
<path d="M17.4798 5.2716V20.3162H21.9164C22.1213 20.3162 22.3217 20.3602 22.5028 20.4436C22.7904 20.5729 23.034 20.7976 23.1903 21.0901C23.3621 21.4101 23.6939 21.61 24.0561 21.61C24.4191 21.61 24.7518 21.411 24.9228 21.0901C25.08 20.7976 25.3245 20.5729 25.6121 20.4436C25.7932 20.3602 25.9936 20.3162 26.1976 20.3162H28.2371C28.443 20.3162 28.6406 20.3602 28.8235 20.4436C29.1112 20.5738 29.3548 20.7976 29.512 21.0901C29.6829 21.411 30.0156 21.61 30.3787 21.61C30.7427 21.61 31.0735 21.4101 31.2463 21.0892C31.4026 20.7967 31.6461 20.5729 31.932 20.4436C32.114 20.3602 32.3125 20.3162 32.5184 20.3162H50.3199C50.5248 20.3162 50.7234 20.3602 50.9053 20.4436C51.193 20.5738 51.4366 20.7976 51.5938 21.0901C51.7656 21.411 52.0974 21.61 52.4614 21.61C52.8245 21.61 53.1553 21.4101 53.3281 21.0892C53.4844 20.7967 53.7279 20.5729 54.0147 20.4436C54.1958 20.3602 54.3952 20.3162 54.6002 20.3162H57.057C57.262 20.3162 57.4623 20.3611 57.6461 20.4436C57.9917 20.5977 58.2822 20.8865 58.443 21.2634C59.0101 21.8292 59.7803 21.6458 60.0818 21.1066C60.2509 20.8058 60.5055 20.5747 60.8033 20.4436C60.9862 20.3602 61.1866 20.3162 61.3916 20.3162H61.4348C62.5248 20.3162 63.477 19.7046 63.9614 18.8059C64.1802 18.4034 64.3033 17.9431 64.3042 17.4543C62.9228 14.9446 60.5441 13.096 57.7748 12.3735L50.1121 10.3727L48.5404 8.80557C48.5248 8.7909 48.5101 8.77714 48.4954 8.76247L48.455 8.72304L48.4393 8.7102L48.4265 8.69828C47.1691 7.49615 45.5175 6.8341 43.7776 6.8341H39.1241C38.5294 6.8341 37.9311 6.69656 37.3961 6.43798L36.5432 6.02718C35.5202 5.53294 34.3796 5.2716 33.2445 5.2716H17.4798Z" fill="white"/>
<path d="M40.9421 12.7439H33.989V14.3101H40.1461C40.3612 14.3101 40.5699 14.245 40.7592 14.1267C40.9485 14.0075 41.1186 13.8333 41.2537 13.6114C41.466 13.262 41.2794 12.7439 40.9421 12.7439Z" fill="#83C5BE"/>
<path d="M30.2325 12.7439H17.4798V14.3101H30.2325V12.7439Z" fill="#83C5BE"/>
<path d="M17.4798 17.4974V20.4436H61.8484C63.0156 20.4436 63.9614 19.5001 63.9614 18.3355V17.4974H17.4798Z" fill="#EDF6F9"/>
<mask id="mask1_2_351" style="mask-type:luminance" maskUnits="userSpaceOnUse" x="17" y="4" width="48" height="19">
<path d="M64.6838 4.85805H17.0368V22.0657H64.6838V4.85805Z" fill="white"/>
</mask>
<g mask="url(#mask1_2_351)">
<path d="M56.2298 13.8278C56.3125 13.7562 56.4219 13.7223 56.5294 13.737L57.6599 13.8846C58.6443 14.0148 59.5074 14.6154 59.9669 15.4939L59.9927 15.5406C60.0533 15.658 60.0496 15.7992 59.9807 15.9129C59.9118 16.0257 59.7895 16.0945 59.6563 16.0945H56.4807C56.2711 16.0945 56.1011 15.9258 56.1011 15.7158V14.112C56.1011 14.0029 56.148 13.8993 56.2298 13.8278ZM56.8594 15.3389H58.9329C58.5754 14.9584 58.091 14.7053 57.5607 14.6365L56.8594 14.5439V15.3389ZM19.5009 8.68086H21.1893C21.4577 8.68086 21.6756 8.8991 21.6756 9.16685V10.8513C21.6756 11.1181 21.4586 11.3355 21.1893 11.3355H19.5009C19.2335 11.3355 19.0147 11.1191 19.0147 10.8513V9.16685C19.0147 8.8991 19.2335 8.68086 19.5009 8.68086ZM23.727 8.68086H25.4145C25.6847 8.68086 25.9017 8.8991 25.9017 9.16685V10.8513C25.9017 11.1181 25.6847 11.3355 25.4145 11.3355H23.727C23.4577 11.3355 23.2408 11.1191 23.2408 10.8513V9.16685C23.2408 8.8991 23.4577 8.68086 23.727 8.68086ZM31.671 8.89543H32.5496C32.6912 8.89543 32.8052 9.00913 32.8052 9.14943V10.8669C32.8052 11.0063 32.6912 11.1209 32.5496 11.1209H31.671C31.5294 11.1209 31.4136 11.0063 31.4136 10.8669V9.14943C31.4136 9.00913 31.5285 8.89543 31.671 8.89543ZM31.671 8.89543H32.5496C32.6912 8.89543 32.8052 9.00913 32.8052 9.14943V10.8669C32.8052 11.0063 32.6912 11.1209 32.5496 11.1209H31.671C31.5294 11.1209 31.4136 11.0063 31.4136 10.8669V9.14943C31.4136 9.00913 31.5285 8.89543 31.671 8.89543ZM19.5009 8.68086H21.1893C21.4577 8.68086 21.6756 8.8991 21.6756 9.16685V10.8513C21.6756 11.1181 21.4586 11.3355 21.1893 11.3355H19.5009C19.2335 11.3355 19.0147 11.1191 19.0147 10.8513V9.16685C19.0147 8.8991 19.2335 8.68086 19.5009 8.68086ZM23.727 8.68086H25.4145C25.6847 8.68086 25.9017 8.8991 25.9017 9.16685V10.8513C25.9017 11.1181 25.6847 11.3355 25.4145 11.3355H23.727C23.4577 11.3355 23.2408 11.1191 23.2408 10.8513V9.16685C23.2408 8.8991 23.4577 8.68086 23.727 8.68086ZM56.5294 13.737L57.6599 13.8846C58.6443 14.0148 59.5074 14.6154 59.9669 15.4939L59.9927 15.5406C60.0533 15.658 60.0496 15.7992 59.9807 15.9129C59.9118 16.0257 59.7895 16.0945 59.6563 16.0945H56.4807C56.2711 16.0945 56.1011 15.9258 56.1011 15.7158V14.112C56.1011 14.0029 56.148 13.8993 56.2298 13.8278C56.3125 13.7562 56.4219 13.7223 56.5294 13.737ZM56.8594 15.3389H58.9329C58.5754 14.9584 58.091 14.7053 57.5607 14.6365L56.8594 14.5439V15.3389ZM21.1893 11.3355H19.5009C19.2335 11.3355 19.0147 11.1191 19.0147 10.8513V9.16685C19.0147 8.8991 19.2335 8.68086 19.5009 8.68086H21.1893C21.4577 8.68086 21.6756 8.8991 21.6756 9.16685V10.8513C21.6756 11.1181 21.4586 11.3355 21.1893 11.3355ZM25.4145 11.3355H23.727C23.4577 11.3355 23.2408 11.1191 23.2408 10.8513V9.16685C23.2408 8.8991 23.4577 8.68086 23.727 8.68086H25.4145C25.6847 8.68086 25.9017 8.8991 25.9017 9.16685V10.8513C25.9017 11.1181 25.6847 11.3355 25.4145 11.3355ZM31.671 8.89543H32.5496C32.6912 8.89543 32.8052 9.00913 32.8052 9.14943V10.8669C32.8052 11.0063 32.6912 11.1209 32.5496 11.1209H31.671C31.5294 11.1209 31.4136 11.0063 31.4136 10.8669V9.14943C31.4136 9.00913 31.5285 8.89543 31.671 8.89543ZM56.5294 13.737L57.6599 13.8846C58.6443 14.0148 59.5074 14.6154 59.9669 15.4939L59.9927 15.5406C60.0533 15.658 60.0496 15.7992 59.9807 15.9129C59.9118 16.0257 59.7895 16.0945 59.6563 16.0945H56.4807C56.2711 16.0945 56.1011 15.9258 56.1011 15.7158V14.112C56.1011 14.0029 56.148 13.8993 56.2298 13.8278C56.3125 13.7562 56.4219 13.7223 56.5294 13.737ZM56.8594 15.3389H58.9329C58.5754 14.9584 58.091 14.7053 57.5607 14.6365L56.8594 14.5439V15.3389ZM17.1213 12.7714V12.7146C17.1213 12.5211 17.2785 12.3643 17.4724 12.3643H28.8107C29.386 12.3643 29.852 11.8994 29.852 11.3254V8.43878C29.852 7.58509 30.5469 6.89187 31.4026 6.89187H32.8153C33.6737 6.89187 34.3677 7.58509 34.3677 8.43878V11.3263C34.3677 11.8994 34.8336 12.3643 35.4081 12.3643H40.9412C41.2059 12.3643 41.4504 12.5156 41.5919 12.7678C41.773 13.0887 41.7666 13.4967 41.5772 13.8076C41.4118 14.0781 41.2041 14.2936 40.9605 14.4458C40.7077 14.6044 40.4265 14.6888 40.1443 14.6888H35.1048C34.7224 14.6888 34.3603 14.8868 34.1783 15.2215C33.9145 15.7039 33.4044 16.0303 32.8153 16.0303H31.4026C30.8143 16.0303 30.3006 15.7011 30.0386 15.217C29.8585 14.8823 29.4936 14.6888 29.1131 14.6888H17.4724C17.2785 14.6888 17.1213 14.532 17.1213 14.3385V14.2817C17.1213 14.0882 17.2785 13.9314 17.4724 13.9314H29.852V13.1208H17.4724C17.2785 13.1208 17.1213 12.9649 17.1213 12.7714ZM34.3695 13.9314H40.1461C40.2849 13.9314 40.4237 13.8883 40.557 13.8058C40.6995 13.7177 40.8272 13.5802 40.9302 13.4142C40.9917 13.3106 40.9586 13.1666 40.9219 13.1208H34.3695V13.9314ZM30.6121 14.4834C30.6121 14.9189 30.9669 15.2738 31.4035 15.2738H32.8171C33.2555 15.2738 33.6103 14.9189 33.6103 14.4834V8.43878C33.6103 8.00323 33.2555 7.64928 32.8171 7.64928H31.4035C30.9669 7.64928 30.6121 8.00323 30.6121 8.43878V14.4834ZM39.9118 7.54291C40.0322 7.6181 40.1057 7.75015 40.1057 7.88402C40.1057 7.94087 40.0928 7.99589 40.0653 8.04908C39.9972 8.18112 39.864 8.25356 39.727 8.25356C39.659 8.25356 39.5892 8.23614 39.5285 8.19671L37.296 6.81026L36.3787 6.36737C35.4007 5.89514 34.3291 5.65031 33.2436 5.65031H17.4734C17.2794 5.65031 17.1222 5.49351 17.1222 5.30003V5.24318C17.1222 5.0497 17.2794 4.89382 17.4734 4.89382H33.2445C34.4439 4.89382 35.6287 5.16432 36.7086 5.68607L37.5625 6.09687C38.0496 6.33253 38.5827 6.45632 39.1241 6.45632H43.7776C45.6241 6.45632 47.3603 7.15412 48.6893 8.42503C48.6958 8.43053 48.7041 8.43328 48.7077 8.4397L48.7638 8.49564C48.7767 8.50847 48.7895 8.51948 48.8015 8.5314L50.307 10.0334L57.8713 12.0076C60.7408 12.7549 63.205 14.6714 64.6333 17.2636C64.6627 17.3168 64.6802 17.3773 64.6838 17.4415V17.4543C64.6838 19.2442 63.2289 20.6949 61.4357 20.6949H61.3916C60.9789 20.6949 60.614 20.9314 60.4127 21.2909C60.1811 21.7072 59.7353 21.9878 59.2243 21.9878C58.7132 21.9878 58.2574 21.7008 58.0267 21.2771C57.8355 20.9259 57.4798 20.6949 57.0791 20.6949H54.6002C54.205 20.6949 53.8484 20.9195 53.6627 21.2689C53.432 21.6962 52.9807 21.9878 52.4614 21.9878C51.9412 21.9878 51.4881 21.6962 51.2592 21.2689C51.0717 20.9195 50.716 20.6949 50.3199 20.6949H32.5184C32.1232 20.6949 31.7656 20.9195 31.58 21.2689C31.3493 21.6962 30.8989 21.9878 30.3787 21.9878C29.8594 21.9878 29.4063 21.6962 29.1774 21.2689C28.9899 20.9195 28.6333 20.6949 28.2371 20.6949H26.1976C25.8015 20.6949 25.4458 20.9195 25.2574 21.2689C25.0294 21.6962 24.5772 21.9878 24.0561 21.9878C23.5359 21.9878 23.0846 21.6962 22.8548 21.2689C22.6691 20.9195 22.3116 20.6949 21.9164 20.6949H17.4734C17.2794 20.6949 17.1222 20.5381 17.1222 20.3446V20.2877C17.1222 20.0943 17.2794 19.9375 17.4734 19.9375H28.9063C29.4954 19.9375 30.0064 19.457 29.9982 18.8683C29.9945 18.5822 29.8768 18.3254 29.6893 18.1402C29.4991 17.9486 29.2353 17.8321 28.943 17.8321H17.4734C17.2794 17.8321 17.1222 17.6753 17.1222 17.4818V17.425C17.1222 17.2315 17.2794 17.0747 17.4734 17.0747H61.83C62.6011 17.0747 63.011 16.1532 62.4844 15.5929C61.193 14.223 59.5257 13.2207 57.6792 12.7393L50.0634 10.7523H45.409C44.2601 10.7523 43.1673 10.2599 42.409 9.39976L42.0257 8.96695C41.9541 8.88718 41.9136 8.78173 41.9228 8.67628C41.9439 8.47271 42.1112 8.32967 42.3024 8.32967H47.3778C46.3272 7.60435 45.0827 7.21281 43.7776 7.21281H40.0064C39.8263 7.21281 39.7583 7.44847 39.9118 7.54291ZM51.0257 17.8321H31.8134C31.2298 17.8321 30.7574 18.3016 30.7574 18.8839C30.7574 19.1755 30.8741 19.4377 31.0671 19.6284C31.2583 19.8192 31.5221 19.9375 31.8134 19.9375H51.0257C51.6085 19.9375 52.0818 19.4652 52.0818 18.8839C52.0818 18.3025 51.6085 17.8321 51.0257 17.8321ZM62.4173 17.8321H53.8952C53.3116 17.8321 52.8401 18.3016 52.8401 18.8839C52.8401 19.1755 52.9577 19.4377 53.1489 19.6284C53.3401 19.8192 53.6048 19.9375 53.8952 19.9375H61.4347C62.0175 19.9375 62.5533 19.7357 62.9779 19.3992C63.6305 18.8839 63.25 17.8321 62.4173 17.8321ZM17.1213 12.7714V12.7146C17.1213 12.5211 17.2785 12.3643 17.4724 12.3643H28.8107C29.386 12.3643 29.852 11.8994 29.852 11.3254V8.43878C29.852 7.58509 30.5469 6.89187 31.4026 6.89187H32.8153C33.6737 6.89187 34.3677 7.58509 34.3677 8.43878V11.3263C34.3677 11.8994 34.8336 12.3643 35.4081 12.3643H40.9412C41.2059 12.3643 41.4504 12.5156 41.5919 12.7678C41.773 13.0887 41.7666 13.4967 41.5772 13.8076C41.4118 14.0781 41.2041 14.2936 40.9605 14.4458C40.7077 14.6044 40.4265 14.6888 40.1443 14.6888H35.1048C34.7224 14.6888 34.3603 14.8868 34.1783 15.2215C33.9145 15.7039 33.4044 16.0303 32.8153 16.0303H31.4026C30.8143 16.0303 30.3006 15.7011 30.0386 15.217C29.8585 14.8823 29.4936 14.6888 29.1131 14.6888H17.4724C17.2785 14.6888 17.1213 14.532 17.1213 14.3385V14.2817C17.1213 14.0882 17.2785 13.9314 17.4724 13.9314H29.852V13.1208H17.4724C17.2785 13.1208 17.1213 12.9649 17.1213 12.7714ZM34.3695 13.9314H40.1461C40.2849 13.9314 40.4237 13.8883 40.557 13.8058C40.6995 13.7177 40.8272 13.5802 40.9302 13.4142C40.9917 13.3106 40.9586 13.1666 40.9219 13.1208H34.3695V13.9314ZM30.6121 14.4834C30.6121 14.9189 30.9669 15.2738 31.4035 15.2738H32.8171C33.2555 15.2738 33.6103 14.9189 33.6103 14.4834V8.43878C33.6103 8.00323 33.2555 7.64928 32.8171 7.64928H31.4035C30.9669 7.64928 30.6121 8.00323 30.6121 8.43878V14.4834Z" fill="black"/>
</g>
<path d="M15.5955 26.5728L15.6433 27.2697C16.0772 26.7296 16.659 26.4591 17.3897 26.4591C18.0312 26.4591 18.5091 26.648 18.8235 27.0239C19.1369 27.4008 19.2977 27.9629 19.3051 28.7111V32.6211H17.6838V28.7515C17.6838 28.4095 17.6084 28.161 17.4595 28.0069C17.3097 27.851 17.0624 27.7722 16.7169 27.7722C16.261 27.7722 15.9191 27.9666 15.6911 28.3554V32.6211H14.0698V26.5728H15.5955Z" fill="black"/>
<path d="M20.9766 32.621V27.7575H20.0722V26.5728H20.9766V26.0556C20.9766 25.3789 21.1714 24.8526 21.5611 24.4784C21.9508 24.1025 22.4968 23.9136 23.2008 23.9136C23.4233 23.9136 23.6981 23.9521 24.0244 24.0273L24.006 25.278C23.8709 25.2469 23.7064 25.2304 23.5133 25.2304C22.9049 25.2304 22.6016 25.5155 22.6016 26.085V26.5728H23.8038V27.7575H22.6016V32.621H20.9766Z" fill="black"/>
<path d="M24.3957 29.5401C24.3957 28.9413 24.5106 28.4067 24.7413 27.9372C24.9739 27.4659 25.3075 27.101 25.7413 26.8442C26.177 26.5875 26.6834 26.4591 27.2597 26.4591C28.0759 26.4591 28.7422 26.7103 29.2597 27.211C29.779 27.7098 30.0685 28.3874 30.1273 29.243L30.1384 29.6574C30.1384 30.5872 29.8783 31.3318 29.359 31.8912C28.8387 32.4514 28.1421 32.7311 27.2671 32.7311C26.3939 32.7311 25.6972 32.4523 25.1751 31.8948C24.6549 31.3355 24.3957 30.5744 24.3957 29.6134V29.5401ZM26.0134 29.6574C26.0134 30.2324 26.1209 30.6716 26.3369 30.9742C26.5547 31.2777 26.8663 31.429 27.2707 31.429C27.6623 31.429 27.9693 31.2805 28.1898 30.9815C28.4104 30.6808 28.5207 30.2003 28.5207 29.5401C28.5207 28.978 28.4104 28.5424 28.1898 28.2343C27.9693 27.9244 27.6586 27.7685 27.2597 27.7685C26.8626 27.7685 26.5547 27.9225 26.3369 28.2306C26.1209 28.5369 26.0134 29.0119 26.0134 29.6574Z" fill="black"/>
<path d="M38.333 30.4864C38.333 30.1691 38.2199 29.9252 37.9947 29.7565C37.7714 29.5859 37.3679 29.4062 36.7852 29.2173C36.2043 29.0293 35.7429 28.845 35.4028 28.6634C34.4763 28.1628 34.0131 27.4888 34.0131 26.6425C34.0131 26.2051 34.1363 25.8135 34.3844 25.4688C34.6344 25.124 34.9911 24.8553 35.4543 24.6618C35.9194 24.4665 36.4414 24.3684 37.0205 24.3684C37.6032 24.3684 38.1234 24.4739 38.5793 24.6838C39.0352 24.8947 39.389 25.1918 39.6418 25.5751C39.8936 25.9593 40.0205 26.3958 40.0205 26.8845H38.3403C38.3403 26.5132 38.2227 26.2234 37.9874 26.0153C37.7521 25.808 37.4212 25.7035 36.9947 25.7035C36.583 25.7035 36.2631 25.7906 36.0352 25.9639C35.8072 26.1381 35.6933 26.3665 35.6933 26.6498C35.6933 26.9139 35.8265 27.1367 36.094 27.3174C36.3605 27.4962 36.7539 27.664 37.2741 27.8198C38.23 28.1059 38.9258 28.4617 39.3624 28.8872C39.8008 29.3108 40.0205 29.8399 40.0205 30.4754C40.0205 31.1796 39.753 31.7325 39.219 32.1332C38.6841 32.5321 37.9653 32.7311 37.0609 32.7311C36.4331 32.7311 35.8605 32.6174 35.344 32.39C34.8293 32.1607 34.4359 31.8462 34.1638 31.4473C33.8936 31.0494 33.7594 30.5872 33.7594 30.0609H35.4469C35.4469 30.9586 35.9846 31.407 37.0609 31.407C37.4598 31.407 37.7714 31.3263 37.9947 31.1649C38.2199 31.0035 38.333 30.778 38.333 30.4864Z" fill="black"/>
<path d="M42.9925 25.0836V26.5728H44.0293V27.7575H42.9925V30.7761C42.9925 30.9989 43.0348 31.1594 43.1212 31.2566C43.2066 31.3547 43.3712 31.4033 43.6138 31.4033C43.7921 31.4033 43.9502 31.3905 44.0881 31.363V32.588C43.7719 32.6834 43.4456 32.7311 43.1101 32.7311C41.9723 32.7311 41.3932 32.1589 41.3712 31.0145V27.7575H40.4851V26.5728H41.3712V25.0836H42.9925Z" fill="black"/>
<path d="M48.4446 32.6211C48.3711 32.4771 48.3169 32.2964 48.2829 32.0782C47.8904 32.5138 47.3803 32.7311 46.7534 32.7311C46.1579 32.7311 45.6652 32.5605 45.2755 32.2176C44.8858 31.8756 44.6909 31.4437 44.6909 30.9228C44.6909 30.2801 44.9281 29.7876 45.4042 29.4447C45.8794 29.1027 46.5678 28.9294 47.4704 28.9239H48.2167V28.5791C48.2167 28.3003 48.1441 28.0766 47.9998 27.9079C47.8546 27.7392 47.6284 27.6548 47.3196 27.6548C47.0448 27.6548 46.8307 27.7208 46.6762 27.8529C46.5218 27.9831 46.4446 28.161 46.4446 28.3884H44.8233C44.8233 28.039 44.9308 27.7153 45.1468 27.4164C45.3647 27.1184 45.6707 26.8845 46.0659 26.7158C46.463 26.5453 46.9079 26.4591 47.4005 26.4591C48.1477 26.4591 48.7406 26.648 49.1799 27.0239C49.6211 27.398 49.8417 27.9244 49.8417 28.6011V31.2236C49.8435 31.7985 49.9235 32.2323 50.0807 32.5257V32.6211H48.4446ZM47.1064 31.4987C47.3435 31.4987 47.5632 31.4464 47.7645 31.341C47.9676 31.2337 48.1183 31.0906 48.2167 30.9118V29.8702H47.6101C46.7985 29.8702 46.3674 30.1508 46.3159 30.7101L46.3086 30.8055C46.3086 31.0063 46.3794 31.1723 46.5218 31.3043C46.6634 31.4345 46.8582 31.4987 47.1064 31.4987Z" fill="black"/>
<path d="M53.6062 31.429C53.9049 31.429 54.1475 31.3474 54.3341 31.1833C54.5225 31.02 54.6209 30.8018 54.6282 30.5304H56.1466C56.1411 30.9412 56.029 31.3181 55.8084 31.6601C55.5878 32.0003 55.2863 32.2644 54.904 32.4523C54.5216 32.6376 54.0988 32.7311 53.6356 32.7311C52.7679 32.7311 52.0841 32.4578 51.5841 31.9095C51.0841 31.3593 50.8341 30.5992 50.8341 29.6281V29.5217C50.8341 28.5901 51.0814 27.8474 51.5768 27.2917C52.074 26.7369 52.7569 26.4591 53.6245 26.4591C54.3819 26.4591 54.9894 26.6746 55.4481 27.1046C55.9058 27.5356 56.1393 28.1087 56.1466 28.8248H54.6282C54.6209 28.5122 54.5225 28.2582 54.3341 28.0619C54.1475 27.8666 53.9012 27.7685 53.5951 27.7685C53.2174 27.7685 52.9315 27.906 52.7385 28.1793C52.5473 28.4535 52.4518 28.8973 52.4518 29.5107V29.6794C52.4518 30.303 52.5473 30.7505 52.7385 31.0219C52.9297 31.2933 53.2183 31.429 53.6062 31.429Z" fill="black"/>
<path d="M58.7871 26.5728V32.9511C58.7871 33.6187 58.6087 34.1368 58.254 34.5063C57.8983 34.8777 57.3863 35.0638 56.7172 35.0638C56.4378 35.0638 56.1712 35.0317 55.9157 34.9685V33.6884C56.1097 33.7223 56.2797 33.7397 56.4268 33.7397C56.9167 33.7397 57.1621 33.4802 57.1621 32.9622V26.5728H58.7871ZM57.0334 25.0066C57.0334 24.7645 57.1143 24.5655 57.276 24.4087C57.4378 24.2529 57.6584 24.174 57.9378 24.174C58.219 24.174 58.4415 24.2529 58.6032 24.4087C58.765 24.5655 58.8459 24.7645 58.8459 25.0066C58.8459 25.2514 58.7622 25.4522 58.5959 25.6081C58.4314 25.7649 58.2117 25.8429 57.9378 25.8429C57.6657 25.8429 57.4461 25.7649 57.2797 25.6081C57.1152 25.4522 57.0334 25.2514 57.0334 25.0066Z" fill="black"/>
<path d="M63.5667 32.6211C63.4931 32.4771 63.4389 32.2964 63.4049 32.0782C63.0124 32.5138 62.5023 32.7311 61.8755 32.7311C61.2799 32.7311 60.7873 32.5605 60.3976 32.2176C60.0079 31.8756 59.813 31.4437 59.813 30.9228C59.813 30.2801 60.0501 29.7876 60.5262 29.4447C61.0014 29.1027 61.6898 28.9294 62.5924 28.9239H63.3387V28.5791C63.3387 28.3003 63.2661 28.0766 63.1218 27.9079C62.9766 27.7392 62.7505 27.6548 62.4417 27.6548C62.1669 27.6548 61.9527 27.7208 61.7983 27.8529C61.6439 27.9831 61.5667 28.161 61.5667 28.3884H59.9454C59.9454 28.039 60.0529 27.7153 60.2689 27.4164C60.4867 27.1184 60.7928 26.8845 61.188 26.7158C61.5851 26.5453 62.0299 26.4591 62.5226 26.4591C63.2698 26.4591 63.8626 26.648 64.302 27.0239C64.7431 27.398 64.9637 27.9244 64.9637 28.6011V31.2236C64.9656 31.7985 65.0455 32.2323 65.2027 32.5257V32.6211H63.5667ZM62.2284 31.4987C62.4656 31.4987 62.6852 31.4464 62.8865 31.341C63.0897 31.2337 63.2404 31.0906 63.3387 30.9118V29.8702H62.7321C61.9205 29.8702 61.4895 30.1508 61.438 30.7101L61.4306 30.8055C61.4306 31.0063 61.5014 31.1723 61.6439 31.3043C61.7854 31.4345 61.9803 31.4987 62.2284 31.4987Z" fill="black"/>
<path d="M14.8148 36.436H14.3809V34.8222H14.8148V36.436ZM14.3552 34.4077C14.3552 34.3417 14.3773 34.2885 14.4214 34.2463C14.4655 34.2051 14.5243 34.184 14.5979 34.184C14.6714 34.184 14.7302 34.2051 14.7743 34.2463C14.8184 34.2885 14.8405 34.3417 14.8405 34.4077C14.8405 34.4719 14.8184 34.5251 14.7743 34.5691C14.7302 34.6113 14.6714 34.6314 14.5979 34.6314C14.5243 34.6314 14.4655 34.6113 14.4214 34.5691C14.3773 34.5251 14.3552 34.4719 14.3552 34.4077Z" fill="black"/>
<path d="M18.0453 35.8492L18.2585 34.8222H18.6739L18.2622 36.436H17.9019L17.5967 35.42L17.2879 36.436H16.9313L16.5158 34.8222H16.935L17.1445 35.8492L17.4386 34.8222H17.7511L18.0453 35.8492Z" fill="black"/>
<path d="M20.1178 35.9922C20.1178 35.939 20.0921 35.8968 20.0406 35.8675C19.9892 35.8363 19.9046 35.8079 19.787 35.7831C19.4046 35.7052 19.2134 35.5429 19.2134 35.2953C19.2134 35.1541 19.2723 35.0349 19.3899 34.9395C19.5094 34.8423 19.6656 34.7928 19.8568 34.7928C20.0627 34.7928 20.2263 34.8423 20.3495 34.9395C20.4717 35.0349 20.5333 35.1596 20.5333 35.3136H20.1031C20.1031 35.2531 20.082 35.2027 20.0406 35.1633C20.0011 35.122 19.9395 35.1009 19.8568 35.1009C19.7833 35.1009 19.7263 35.1183 19.6877 35.1523C19.6482 35.1844 19.6289 35.2256 19.6289 35.277C19.6289 35.3237 19.6509 35.3613 19.695 35.3907C19.7392 35.42 19.8145 35.4457 19.923 35.4677C20.0305 35.4879 20.1215 35.5108 20.195 35.5374C20.423 35.6236 20.537 35.7685 20.537 35.9739C20.537 36.1206 20.4726 36.2398 20.3458 36.3296C20.2208 36.4204 20.0572 36.4654 19.8568 36.4654C19.7217 36.4654 19.6013 36.4415 19.4965 36.3957C19.3936 36.3471 19.3109 36.281 19.2502 36.1976C19.1914 36.1123 19.162 36.0206 19.162 35.9225H19.57C19.5746 36.0014 19.6031 36.061 19.6546 36.1022C19.7079 36.1417 19.7796 36.1609 19.8678 36.1609C19.9506 36.1609 20.0131 36.1453 20.0553 36.1132C20.0967 36.0821 20.1178 36.0417 20.1178 35.9922Z" fill="black"/>
<path d="M21.6663 36.0876H22.4567V36.436H21.1148V36.1719L21.8758 35.1706H21.1369V34.8222H22.431V35.0789L21.6663 36.0876Z" fill="black"/>
<path d="M23.6836 35.8272L23.9814 34.8222H24.4446L23.7975 36.6854L23.7608 36.7698C23.6652 36.9825 23.5053 37.0889 23.2828 37.0889C23.2185 37.0889 23.1551 37.0788 23.0917 37.0595V36.7331H23.1578C23.2387 36.7331 23.2985 36.7203 23.338 36.6964C23.3793 36.6717 23.4115 36.6304 23.4336 36.5717L23.485 36.4397L22.9189 34.8222H23.3858L23.6836 35.8272Z" fill="black"/>
<path d="M25.8454 35.9922C25.8454 35.939 25.8197 35.8968 25.7682 35.8675C25.7167 35.8363 25.6322 35.8079 25.5145 35.7831C25.1322 35.7052 24.941 35.5429 24.941 35.2953C24.941 35.1541 24.9998 35.0349 25.1175 34.9395C25.237 34.8423 25.3932 34.7928 25.5844 34.7928C25.7903 34.7928 25.9539 34.8423 26.077 34.9395C26.1993 35.0349 26.2609 35.1596 26.2609 35.3136H25.8307C25.8307 35.2531 25.8096 35.2027 25.7682 35.1633C25.7287 35.122 25.6671 35.1009 25.5844 35.1009C25.5109 35.1009 25.4539 35.1183 25.4153 35.1523C25.3757 35.1844 25.3564 35.2256 25.3564 35.277C25.3564 35.3237 25.3785 35.3613 25.4226 35.3907C25.4667 35.42 25.5421 35.4457 25.6506 35.4677C25.7581 35.4879 25.8491 35.5108 25.9226 35.5374C26.1506 35.6236 26.2645 35.7685 26.2645 35.9739C26.2645 36.1206 26.2002 36.2398 26.0734 36.3296C25.9484 36.4204 25.7847 36.4654 25.5844 36.4654C25.4493 36.4654 25.3289 36.4415 25.2241 36.3957C25.1211 36.3471 25.0384 36.281 24.9778 36.1976C24.9189 36.1123 24.8895 36.0206 24.8895 35.9225H25.2976C25.3022 36.0014 25.3307 36.061 25.3822 36.1022C25.4355 36.1417 25.5072 36.1609 25.5954 36.1609C25.6781 36.1609 25.7406 36.1453 25.7829 36.1132C25.8243 36.0821 25.8454 36.0417 25.8454 35.9922Z" fill="black"/>
<path d="M27.4159 34.426V34.8222H27.6916V35.1413H27.4159V35.9445C27.4159 36.0032 27.4269 36.0463 27.449 36.0729C27.471 36.0977 27.5152 36.1096 27.5813 36.1096C27.6273 36.1096 27.6696 36.1077 27.7063 36.1022V36.4287C27.6227 36.4525 27.5354 36.4654 27.4453 36.4654C27.1438 36.4654 26.9894 36.3131 26.9821 36.0069V35.1413H26.7468V34.8222H26.9821V34.426H27.4159Z" fill="black"/>
<path d="M28.8738 35.7905L28.7194 35.9445V36.436H28.2856V34.1473H28.7194V35.4164L28.8003 35.3063L29.2158 34.8222H29.7341L29.1496 35.4971L29.7856 36.436H29.2893L28.8738 35.7905Z" fill="black"/>
<path d="M30.2078 35.6144C30.2078 35.4558 30.2381 35.3136 30.2997 35.1889C30.3603 35.0624 30.4486 34.9643 30.5644 34.8955C30.682 34.8277 30.8162 34.7928 30.9688 34.7928C31.1866 34.7928 31.364 34.8607 31.5019 34.9945C31.6416 35.1266 31.7188 35.3081 31.7335 35.5374L31.7372 35.6474C31.7372 35.895 31.6673 36.0931 31.5276 36.2416C31.3897 36.3911 31.205 36.4654 30.9725 36.4654C30.739 36.4654 30.5533 36.3911 30.4136 36.2416C30.2758 36.0931 30.2078 35.8895 30.2078 35.6328V35.6144ZM30.6379 35.6474C30.6379 35.7996 30.6655 35.9152 30.7225 35.9959C30.7813 36.0766 30.864 36.1169 30.9725 36.1169C31.0772 36.1169 31.16 36.0784 31.2188 35.9995C31.2776 35.9188 31.307 35.7905 31.307 35.6144C31.307 35.4659 31.2776 35.3494 31.2188 35.266C31.16 35.1834 31.0763 35.1413 30.9688 35.1413C30.8631 35.1413 30.7813 35.1834 30.7225 35.266C30.6655 35.3467 30.6379 35.4741 30.6379 35.6474Z" fill="black"/>
<path d="M34.8786 35.8492L35.0918 34.8222H35.5072L35.0955 36.436H34.7352L34.43 35.42L34.1212 36.436H33.7646L33.3492 34.8222H33.7683L33.9778 35.8492L34.272 34.8222H34.5845L34.8786 35.8492Z" fill="black"/>
<path d="M36.532 36.436H36.0982V34.8222H36.532V36.436ZM36.0725 34.4077C36.0725 34.3417 36.0945 34.2885 36.1387 34.2463C36.1828 34.2051 36.2416 34.184 36.3151 34.184C36.3887 34.184 36.4475 34.2051 36.4916 34.2463C36.5357 34.2885 36.5578 34.3417 36.5578 34.4077C36.5578 34.4719 36.5357 34.5251 36.4916 34.5691C36.4475 34.6113 36.3887 34.6314 36.3151 34.6314C36.2416 34.6314 36.1828 34.6113 36.1387 34.5691C36.0945 34.5251 36.0725 34.4719 36.0725 34.4077Z" fill="black"/>
<path d="M37.9844 36.4654C37.7491 36.4654 37.5561 36.3938 37.4072 36.2489C37.2574 36.1022 37.1829 35.9097 37.1829 35.6694V35.6254C37.1829 35.464 37.2133 35.3201 37.2749 35.1926C37.3383 35.0661 37.4274 34.968 37.5432 34.8992C37.6581 34.8286 37.7896 34.7928 37.9366 34.7928C38.159 34.7928 38.3337 34.8625 38.4587 35.0019C38.5855 35.1413 38.6499 35.3384 38.6499 35.5924V35.7685H37.6204C37.6351 35.8739 37.6765 35.9583 37.7454 36.0215C37.8162 36.0857 37.9054 36.1169 38.0138 36.1169C38.1802 36.1169 38.3098 36.0573 38.4035 35.9372L38.6168 36.1756C38.5506 36.2664 38.4624 36.337 38.3521 36.3883C38.2418 36.4397 38.1186 36.4654 37.9844 36.4654ZM37.9366 35.1413C37.8502 35.1413 37.7804 35.1706 37.7271 35.2293C37.6756 35.2861 37.6425 35.3678 37.6278 35.475H38.2271V35.442C38.2243 35.3467 38.1976 35.2733 38.1462 35.222C38.0965 35.1688 38.0267 35.1413 37.9366 35.1413Z" fill="black"/>
<path d="M40.1245 35.9922C40.1245 35.939 40.0988 35.8968 40.0473 35.8675C39.9958 35.8363 39.9113 35.8079 39.7936 35.7831C39.4113 35.7052 39.2201 35.5429 39.2201 35.2953C39.2201 35.1541 39.2789 35.0349 39.3966 34.9395C39.516 34.8423 39.6723 34.7928 39.8635 34.7928C40.0694 34.7928 40.233 34.8423 40.3561 34.9395C40.4784 35.0349 40.5399 35.1596 40.5399 35.3136H40.1098C40.1098 35.2531 40.0887 35.2027 40.0473 35.1633C40.0078 35.122 39.9462 35.1009 39.8635 35.1009C39.7899 35.1009 39.733 35.1183 39.6944 35.1523C39.6548 35.1844 39.6355 35.2256 39.6355 35.277C39.6355 35.3237 39.6576 35.3613 39.7017 35.3907C39.7458 35.42 39.8212 35.4457 39.9296 35.4677C40.0372 35.4879 40.1282 35.5108 40.2017 35.5374C40.4296 35.6236 40.5436 35.7685 40.5436 35.9739C40.5436 36.1206 40.4793 36.2398 40.3524 36.3296C40.2274 36.4204 40.0638 36.4654 39.8635 36.4654C39.7284 36.4654 39.608 36.4415 39.5032 36.3957C39.4002 36.3471 39.3175 36.281 39.2569 36.1976C39.198 36.1123 39.1686 36.0206 39.1686 35.9225H39.5767C39.5813 36.0014 39.6098 36.061 39.6613 36.1022C39.7146 36.1417 39.7863 36.1609 39.8745 36.1609C39.9572 36.1609 40.0197 36.1453 40.062 36.1132C40.1034 36.0821 40.1245 36.0417 40.1245 35.9922Z" fill="black"/>
<path d="M41.6729 36.0876H42.4634V36.436H41.1215V36.1719L41.8825 35.1706H41.1435V34.8222H42.4376V35.0789L41.6729 36.0876Z" fill="black"/>
<path d="M15.3746 19.767C15.3746 19.9752 15.3121 20.2237 15.1871 20.5116C15.0639 20.8004 14.9058 21.0746 14.7128 21.3332C14.5189 21.5927 14.3057 21.8127 14.0731 21.9934C13.8397 22.1722 13.6145 22.2611 13.3966 22.2611C13.1025 22.2611 12.8534 22.1722 12.6503 21.9934C12.4463 21.8127 12.3452 21.6229 12.3452 21.4249C12.3452 21.3396 12.3755 21.2121 12.4371 21.0434C12.5005 20.8729 12.5814 20.6858 12.6797 20.4822C12.7799 20.2796 12.8985 20.0714 13.0364 19.8587C13.1733 19.646 13.3194 19.4534 13.4739 19.2792C13.6301 19.1031 13.7873 18.9619 13.9444 18.8537C14.1007 18.7437 14.2551 18.6887 14.4077 18.6887C14.7845 18.6887 15.04 18.7794 15.1724 18.9601C15.3066 19.1389 15.3746 19.4076 15.3746 19.767ZM13.54 29.5785C13.2091 30.3249 12.8461 31.0071 12.4518 31.6251C12.0593 32.2441 11.6549 32.7732 11.2386 33.2133C10.8213 33.6534 10.393 33.9973 9.95179 34.244C9.51062 34.4879 9.07679 34.6108 8.65032 34.6108C8.32863 34.6108 8.05473 34.542 7.82679 34.4054C7.59885 34.2687 7.41319 34.0826 7.26797 33.8478C7.12091 33.6113 7.01429 33.3343 6.94812 33.0189C6.8801 32.7016 6.84517 32.3578 6.84517 31.9882C6.84517 31.2987 6.94076 30.6165 7.13194 29.9416C7.32128 29.2649 7.56484 28.6019 7.86356 27.9536C8.16227 27.3063 8.50051 26.6699 8.87826 26.0463C9.25786 25.4228 9.63653 24.8195 10.0143 24.2344C10.0998 24.0932 10.2036 23.9658 10.3268 23.853C10.4518 23.7384 10.5704 23.6806 10.6834 23.6806C10.8452 23.6806 11.0051 23.709 11.165 23.765C11.3268 23.8218 11.4739 23.8952 11.6062 23.985C11.7386 24.0758 11.8452 24.1757 11.9261 24.2858C12.0069 24.394 12.0474 24.504 12.0474 24.6159C12.0474 24.7479 11.9665 24.9662 11.8047 25.2688C11.6448 25.5695 11.4417 25.9308 11.1944 26.3508C10.949 26.7717 10.6871 27.2375 10.4077 27.7482C10.1283 28.2599 9.86448 28.789 9.61723 29.3364C9.37183 29.8847 9.1687 30.4349 9.00694 30.9869C8.84517 31.5399 8.76429 32.0671 8.76429 32.5678C8.76429 32.6925 8.77165 32.8135 8.78635 32.9309C8.80106 33.0483 8.83415 33.1528 8.88562 33.2427C8.93709 33.3334 9.01613 33.404 9.12459 33.4554C9.23488 33.5067 9.38562 33.5324 9.57679 33.5324C9.77532 33.5324 10.0226 33.415 10.3194 33.1803C10.6182 32.9437 10.9307 32.6292 11.2569 32.2377C11.5851 31.8443 11.9123 31.3996 12.2386 30.9026C12.5667 30.4065 12.8534 29.8994 13.0989 29.3804C13.1742 29.2291 13.2606 29.153 13.3562 29.153C13.4224 29.153 13.4784 29.1732 13.5253 29.2117C13.5713 29.2484 13.5952 29.3052 13.5952 29.3804C13.5952 29.4373 13.5768 29.5033 13.54 29.5785Z" fill="#005F70"/>
</svg>
