<svg width="155" height="124" viewBox="0 0 155 124" fill="none" xmlns="http://www.w3.org/2000/svg">
<rect width="155" height="113" fill="#83C5BE" fill-opacity="0.3"/>
<path d="M132.973 121.062C132.973 111.928 127.19 103.792 118.536 100.761C118.536 100.761 102.656 95.4297 96.606 93.0633C92.7195 91.5477 89.4741 88.8489 89.3406 84.7541C90.0885 84.0096 90.7563 83.1853 91.3306 82.2946L95.3639 76.0594C97.621 72.5629 98.9699 68.6543 99.3573 64.6526C100.399 64.4 100.973 63.7618 101.574 62.8046C101.628 62.7116 101.681 62.6185 101.721 62.5254L104.232 56.6758C104.886 54.7746 103.965 52.7272 102.015 51.7301L101.761 51.5972C101.441 51.4377 101.12 51.3579 100.786 51.3313C100.933 48.3134 101.16 43.7002 101.347 39.8048C101.654 33.4101 100.412 32.0274 100.412 32.0274C101.067 31.376 102.977 31.7615 102.977 31.7615C99.9182 22.5217 87.4975 21.2986 87.4975 21.2986C89.7145 20.0755 92.1586 20.6206 92.1586 20.6206C80.7663 15.5952 70.7629 19.8628 70.7629 19.8628C70.3756 17.6559 72.2855 16.0605 72.2855 16.0605C61.975 15.1432 60.6661 24.9547 60.6661 24.9547C55.6177 24.5027 54.015 30.0067 54.015 30.0067C55.5376 28.1853 56.4591 28.757 56.4591 28.757C51.8114 33.3835 54.1352 49.0579 54.5092 51.318V51.5839C53.828 51.2648 52.9866 51.2249 52.2254 51.6105L51.9716 51.7434C50.0217 52.7405 49.1002 54.7879 49.7546 56.6891L52.2521 62.5387C52.2922 62.6318 52.3456 62.7248 52.399 62.8179C53.0134 63.7884 53.5876 64.4133 54.6427 64.6792C55.0434 68.7207 56.4457 72.656 58.7696 76.1791L62.9098 82.4541C63.6845 83.6241 64.6327 84.6744 65.7012 85.605C65.1669 89.2211 62.1619 91.7072 58.4891 93.0367C52.7997 95.0974 35.5977 100.881 35.5977 100.881C26.8631 103.872 21 112.048 21 121.248V124H133V121.115L132.973 121.062Z" fill="#020202"/>
</svg>
